<svg width="227" height="265" viewBox="0 0 227 265" fill="none" xmlns="http://www.w3.org/2000/svg">
<ellipse cx="115.913" cy="195.874" rx="74.6531" ry="9.69521" fill="#352A23"/>
<path d="M34.8746 124.808C35.4452 125.234 36.8801 125.578 36.8801 125.578C38.7305 126.348 41.6806 128.744 44.833 133.572C45.1986 134.406 45.9327 135.065 46.8856 135.292L62.8965 139.101C63.3813 139.245 63.8938 139.32 64.4256 139.306L176.383 136.278C179.078 136.206 181.203 133.963 181.128 131.267L179.048 54.3706C178.976 51.6753 176.732 49.5507 174.037 49.6255L62.0794 52.6531C61.65 52.6642 61.24 52.7362 60.8467 52.8526C60.0988 52.8387 59.3425 53.0991 58.7498 53.6504L44.146 67.1738C43.8995 67.4009 43.3233 68.2707 43.2291 68.448C43.2291 68.448 43.2236 68.4563 43.2208 68.4619C43.1017 68.689 43.002 68.9272 42.9272 69.1765C39.3981 77.6197 35.0962 81.7609 33.8912 82.8108C33.786 82.8911 33.5616 83.0905 33.5616 83.0905C32.7583 83.844 32.268 84.9243 32.2985 86.1099L33.2624 121.711C33.2957 122.985 33.9245 124.101 34.8746 124.81" fill="#6A4A36"/>
<path d="M34.8746 124.808C35.4452 125.234 36.8801 125.578 36.8801 125.578C38.7305 126.348 41.6806 128.744 44.833 133.572C45.1986 134.406 45.9327 135.065 46.8856 135.292L62.8965 139.101C63.3813 139.245 63.8938 139.32 64.4256 139.306L176.383 136.278C179.078 136.206 181.203 133.963 181.128 131.267L179.048 54.3706C178.976 51.6753 176.732 49.5507 174.037 49.6255L62.0794 52.6531C61.65 52.6642 61.24 52.7362 60.8467 52.8526C60.0988 52.8387 59.3425 53.0991 58.7498 53.6504L44.146 67.1738C43.8995 67.4009 43.3233 68.2707 43.2291 68.448C43.2291 68.448 43.2236 68.4563 43.2208 68.4619C43.1017 68.689 43.002 68.9272 42.9272 69.1765C39.3981 77.6197 35.0962 81.7609 33.8912 82.8108C33.786 82.8911 33.5616 83.0905 33.5616 83.0905C32.7583 83.844 32.268 84.9243 32.2985 86.1099L33.2624 121.711C33.2957 122.985 33.9245 124.101 34.8746 124.81" stroke="#352A23" stroke-width="0.831018" stroke-miterlimit="10" stroke-linecap="round"/>
<path d="M150.768 58.1457L71.5097 60.2903C68.815 60.3633 66.6897 62.6068 66.7626 65.3014L68.4069 126.065C68.4798 128.76 70.7233 130.885 73.4179 130.812L152.676 128.668C155.371 128.595 157.496 126.351 157.423 123.657L155.779 62.8927C155.706 60.1981 153.463 58.0728 150.768 58.1457Z" fill="#FFF4E0" stroke="#352A23" stroke-width="0.831018" stroke-miterlimit="10" stroke-linecap="round"/>
<path d="M132.447 100.329C132.447 100.329 124.389 119.495 112.037 119.542C99.6856 119.589 92.2258 97.7115 92.2258 97.7115V97.5148C92.2923 97.1381 107.896 110.224 132.447 100.329Z" fill="#403127"/>
<path d="M101.769 114.124C101.769 114.124 106.904 111.871 111.015 114.445C111.015 114.445 117.176 112.207 117.979 117.902C117.979 117.902 110.007 123.439 101.769 114.124Z" fill="#EE6363"/>
<path d="M132.83 100.553C129.051 108.797 121.425 120.542 111.146 119.922C101.42 119.041 94.8411 105.958 91.8106 97.7861C91.8078 97.5202 91.8134 97.0022 91.8106 96.7473L92.4644 97.1767C101.708 102.963 113.315 105.071 123.985 102.717C128.813 101.675 133.364 99.6836 137.655 97.3097C138.727 96.7058 139.885 95.9856 140.91 95.3097C140.979 95.2654 141.071 95.2875 141.112 95.354C141.154 95.4205 141.137 95.5064 141.073 95.5534C140.342 96.0991 139.486 96.703 138.724 97.221C128.212 104.495 114.306 106.359 102.129 102.473C98.5696 101.351 95.1458 99.8941 91.9907 97.8581L92.6444 97.5174V97.7141C95.7857 105.85 103.387 121.639 114.833 118.78C120.921 117.16 125.206 111.919 128.517 106.828C129.849 104.717 131.062 102.504 132.065 100.232C132.276 99.7279 133.048 100.033 132.83 100.556V100.553Z" fill="#352A23"/>
<path d="M29.93 131.8C29.93 131.8 28.7943 126.157 31.1738 117.39C34.1987 106.243 39.8607 100.803 46.7831 98.4346C48.1792 95.4014 47.7886 92.7117 45.7471 90.335C38.0795 92.0662 28.0131 97.4596 23.5838 113.784C20.1018 126.62 21.7639 134.886 21.7639 134.886C23.7749 133.238 26.5228 132.232 29.93 131.803V131.8Z" fill="#352A23" stroke="#352A23" stroke-width="0.831018" stroke-miterlimit="10" stroke-linecap="round"/>
<path d="M180.09 90.8695C182.86 89.3238 187.577 85.2685 191.214 78.6813C193.86 73.8863 195.156 69.1634 195.754 65.1772C198.081 66.7534 200.812 67.4071 204.059 66.8919C203.438 70.3434 201.84 76.4874 197.751 83.961C192.588 93.3986 186.242 98.0052 180.281 100.08L180.09 90.8695Z" fill="#352A23" stroke="#352A23" stroke-width="0.831018" stroke-miterlimit="10" stroke-linecap="round"/>
<path d="M86.6443 138.705C94.4503 142.556 117.891 160.417 125.334 171.018C126.071 166.362 127.647 163.229 130.503 160.013C128.397 156.783 125.699 153.486 122.287 150.171C116.434 144.484 110.999 140.653 106.791 138.16L86.6443 138.705Z" fill="#352A23" stroke="#352A23" stroke-width="0.831018" stroke-miterlimit="10" stroke-linecap="round"/>
<path d="M174.209 59.8881L160.63 60.2555C159.547 60.2848 158.693 61.1863 158.722 62.2691L159.275 82.6963C159.305 83.7791 160.206 84.6331 161.289 84.6038L174.868 84.2363C175.951 84.207 176.805 83.3055 176.776 82.2228L176.223 61.7955C176.194 60.7128 175.292 59.8588 174.209 59.8881Z" fill="#FFF4E0" stroke="#352A23" stroke-width="0.831018" stroke-miterlimit="10" stroke-linecap="round"/>
<path d="M168.754 107.434C171.996 107.434 174.624 104.806 174.624 101.564C174.624 98.3223 171.996 95.6943 168.754 95.6943C165.513 95.6943 162.885 98.3223 162.885 101.564C162.885 104.806 165.513 107.434 168.754 107.434Z" fill="#FFF4E0" stroke="#352A23" stroke-width="0.831018" stroke-miterlimit="10" stroke-linecap="round"/>
<path d="M222.859 39.2943C221.84 38.6378 220.325 38.9729 218.726 40.0366C219.929 37.3026 220.009 34.8677 218.712 33.8788C217.178 32.7098 214.2 33.9342 211.496 36.6461C211.92 34.5713 211.685 32.9591 210.688 32.3193C208.726 31.0589 204.569 34.0312 201.4 38.9619C199.411 42.056 198.286 45.1862 198.209 47.3995C198.209 47.4272 198.173 47.4355 198.161 47.4105C197.668 46.5214 196.962 45.5186 196.829 44.8122C195.735 39.056 192.993 34.7431 190.702 35.178C188.411 35.6129 187.441 40.6322 188.535 46.3884C188.577 46.6128 188.624 46.8371 188.671 47.056H188.663L189.979 52.5324C190.247 53.9063 190.887 55.4216 191.887 56.8592C192.854 58.2498 194.006 59.3523 195.161 60.0836C194.519 60.6099 194.106 61.2553 194.017 61.9866C193.735 64.2664 196.66 66.5073 200.555 66.9921C204.449 67.4769 207.834 66.0198 208.117 63.7373C208.175 63.2719 208.098 62.8093 207.906 62.3633C209.538 61.9035 211.48 60.8176 213.305 59.2304C214.433 58.2498 215.377 57.1972 216.098 56.1695L220.413 50.7291C220.79 50.2526 221.153 49.7457 221.499 49.2055C224.206 44.9951 224.809 40.5602 222.848 39.2998L222.859 39.2943Z" fill="#FFF4E0" stroke="#352A23" stroke-width="0.831018" stroke-miterlimit="10" stroke-linecap="round"/>
<path d="M198.339 47.0941C201.383 48.1855 204.873 50.8891 204.061 54.5095C204.034 54.6425 203.832 54.612 203.848 54.4763C204.206 51.0691 200.89 48.8919 198.064 47.8808C197.549 47.698 197.815 46.9196 198.339 47.0969V47.0941Z" fill="#352A23"/>
<path d="M211.499 36.646C211.499 36.646 209.377 42.139 207.186 45.6071Z" fill="white"/>
<path d="M211.884 36.795C210.582 39.8698 209.15 42.8947 207.283 45.6703C207.203 45.7922 207.003 45.6703 207.081 45.5429C208.3 43.3822 209.283 41.0997 210.214 38.8033C210.518 38.036 210.82 37.2632 211.108 36.4958C211.186 36.2798 211.427 36.1662 211.646 36.2465C211.865 36.3269 211.976 36.5762 211.884 36.795Z" fill="#352A23"/>
<path d="M218.818 39.8252C218.818 39.8252 216.145 45.0745 213.607 48.296Z" fill="white"/>
<path d="M219.189 40.0135C217.577 42.9387 215.843 45.8002 213.704 48.3708C213.61 48.4844 213.427 48.3431 213.516 48.224C214.948 46.1991 216.161 44.0301 217.322 41.8418C217.704 41.1077 218.086 40.3709 218.449 39.634C218.704 39.1437 219.441 39.5177 219.189 40.0135Z" fill="#352A23"/>
<path d="M203.358 47.1188C208.045 46.0274 213.374 48.6535 213.355 53.9193C213.355 53.9664 213.286 53.9775 213.272 53.9332C211.757 49.1188 208.1 47.5565 203.372 47.249C203.3 47.249 203.28 47.1355 203.355 47.1216L203.358 47.1188Z" fill="#352A23"/>
<path d="M195.341 60.1909C196.388 60.7782 197.283 61.1189 198.275 61.4181Z" fill="white"/>
<path d="M195.546 59.8279C196.405 60.4069 197.336 60.875 198.325 61.2517C198.521 61.3265 198.43 61.6284 198.225 61.5814C197.178 61.357 196.128 61.0218 195.139 60.5509C194.929 60.4539 194.834 60.2019 194.934 59.9941C195.039 59.7642 195.336 59.6839 195.544 59.8279H195.546Z" fill="#352A23"/>
<path d="M207.787 62.3848C206.618 62.6618 205.665 62.7393 204.629 62.756Z" fill="white"/>
<path d="M207.884 62.7889C206.804 62.9662 205.701 62.9994 204.635 62.9274C204.538 62.9218 204.466 62.8387 204.471 62.7446C204.477 62.6587 204.546 62.5922 204.629 62.5839C205.685 62.4925 206.71 62.3014 207.693 61.98C208.264 61.8166 208.469 62.6781 207.884 62.7889Z" fill="#352A23"/>
<path d="M71.0461 136.085C65.7276 136.085 61.1237 138.495 58.8606 142.007C58.8578 142.01 58.8551 142.013 58.8495 142.018C57.8966 143.284 54.5809 145.711 52.6529 145.946L5.43171 149.764C4.57576 149.833 3.93588 150.583 4.00513 151.439C4.07438 152.295 4.82507 152.935 5.68102 152.866L52.6474 149.068C54.6917 149.104 58.6473 152.182 60.6501 153.977C60.6584 153.985 60.6667 153.988 60.675 153.996C63.1819 156.309 66.8965 157.775 71.0433 157.775C78.5973 157.775 84.7191 152.919 84.7191 146.93C84.7191 140.941 78.5973 136.085 71.0433 136.085H71.0461Z" fill="#C1855F" stroke="#352A23" stroke-width="0.831018" stroke-miterlimit="10" stroke-linecap="round"/>
<path d="M103.927 67.3907C103.938 67.6262 102.647 67.8838 101.071 68.1968C100.287 68.3492 99.5778 68.4877 99.057 68.5874C98.8022 68.6345 98.5667 68.6733 98.4005 68.665C98.2343 68.6567 98.1401 68.6151 98.129 68.5569C98.118 68.4988 98.19 68.4323 98.3119 68.3464C98.4365 68.2605 98.6083 68.147 98.8603 68.0195C99.3479 67.7647 100.093 67.5154 100.905 67.363C102.545 67.0389 103.916 67.158 103.924 67.3907H103.927Z" fill="#352A23"/>
<path d="M126.998 66.2242C127.007 65.9915 128.378 65.8724 130.018 66.1965C130.829 66.3489 131.575 66.5982 132.062 66.853C132.314 66.9805 132.486 67.094 132.611 67.1799C132.732 67.2658 132.804 67.3323 132.793 67.3904C132.782 67.4486 132.688 67.4901 132.522 67.4985C132.356 67.5068 132.123 67.468 131.865 67.4209C131.347 67.3212 130.636 67.1827 129.852 67.0303C128.275 66.7173 126.985 66.4625 126.996 66.2242H126.998Z" fill="#352A23"/>
<path d="M170.926 149.168C168.699 145.637 162.347 142.421 156.45 142.069C148.838 141.615 142.683 145.301 139.918 151.883L138.292 156.18C134.068 155.437 129.929 159.581 127.148 165.235C123.395 172.869 125.461 178.822 131.007 179.431C131.871 183.404 135.3 187.163 140.201 188.938C145.436 190.836 150.649 189.708 153.979 186.991C159.419 182.55 162.032 179.526 165.702 173.67C172.522 162.792 173.151 152.703 170.923 149.168H170.926Z" fill="#FFF4E0" stroke="#352A23" stroke-width="0.831018" stroke-miterlimit="10" stroke-linecap="round"/>
<path d="M169.86 147.816C164.788 144.63 154.633 151.719 146.732 162.586C138.663 173.683 135.417 186.937 142.414 189.574C142.414 189.574 153.918 194.727 167.256 171.018C167.256 171.018 176.657 152.082 169.862 147.816H169.86Z" fill="#C1855F" stroke="#352A23" stroke-width="0.831018" stroke-miterlimit="10" stroke-linecap="round"/>
<path d="M131.01 179.431C131.53 173.606 133.813 166.002 138.295 156.179Z" fill="#FFF4E0"/>
<path d="M131.01 179.431C131.53 173.606 133.813 166.002 138.295 156.179" stroke="#352A23" stroke-width="0.831018" stroke-miterlimit="10" stroke-linecap="round"/>
<path d="M105.578 182.919C104.772 177.06 100.157 172.858 95.273 173.531C94.4447 173.645 93.6636 173.894 92.9378 174.254C92.9378 174.254 89.5888 171.584 89.1844 168.002C91.9434 167.199 94.0237 163.637 94.0237 159.365C94.0237 154.501 91.3284 150.559 88.0016 150.559C86.5861 150.559 85.2842 151.277 84.2537 152.473C83.6249 152.398 82.9795 152.357 82.3174 152.357C77.6776 152.357 75.251 153.656 72.7552 156.404C70.2594 159.152 69.7635 162.052 69.2704 164.565C68.7774 167.077 69.0876 174.977 71.9823 181.434C73.8854 185.678 76.2925 189.232 78.6859 191.611H78.6803C81.4088 195.102 87.6027 198.154 91.5279 197.877C92.3838 197.886 93.2841 197.8 94.2038 197.606C95.6026 197.312 96.863 196.808 97.9101 196.171C99.5472 195.248 101.079 194.043 102.525 192.614C102.561 192.581 102.594 192.545 102.63 192.512C102.641 192.501 102.652 192.489 102.664 192.478L102.658 192.484C104.896 190.265 106.098 186.711 105.575 182.919H105.578Z" fill="#FFF4E0" stroke="#352A23" stroke-width="0.831018" stroke-miterlimit="10"/>
<path d="M92.9517 174.249C92.9517 174.249 90.708 175.368 89.1013 177.686Z" fill="#FFF4E0"/>
<path d="M93.1346 174.622C91.6222 175.343 90.2538 176.453 89.215 177.775C89.1652 177.838 89.0737 177.847 89.01 177.797C88.9519 177.75 88.938 177.667 88.9796 177.603C89.2178 177.234 89.4671 176.866 89.7496 176.525C90.6056 175.478 91.5973 174.584 92.7635 173.877C92.9629 173.761 93.2177 173.827 93.3341 174.024C93.4643 174.24 93.3673 174.525 93.1346 174.62V174.622Z" fill="#352A23"/>
<path d="M89.1847 168.002C89.1847 168.002 86.3869 168.562 84.7249 166.368Z" fill="#FFF4E0"/>
<path d="M89.2648 168.409C87.5086 168.586 85.6416 167.916 84.661 166.414C84.636 166.381 84.6444 166.331 84.6776 166.306C84.7108 166.281 84.7579 166.29 84.7829 166.32C85.323 166.921 86.0155 167.373 86.7995 167.564C87.5391 167.76 88.3922 167.766 89.118 167.589C89.6914 167.467 89.8465 168.326 89.2621 168.409H89.2648Z" fill="#352A23"/>
<path d="M84.24 152.412C84.5281 152.448 81.8688 154.689 82.5336 158.766Z" fill="#FFF4E0"/>
<path d="M84.2924 151.999C84.514 152.018 84.708 152.257 84.6747 152.47C84.6581 152.628 84.5888 152.716 84.5196 152.816C83.8742 153.617 83.3008 154.489 82.9767 155.475C82.6221 156.509 82.5196 157.636 82.6526 158.744C82.672 158.891 82.4448 158.935 82.4143 158.783C81.913 156.531 82.5168 154.237 83.8437 152.362C83.8686 152.329 83.8936 152.254 83.8603 152.342C83.8215 152.489 83.8825 152.669 84.0321 152.763C84.0985 152.802 84.1345 152.813 84.19 152.822C83.6498 152.747 83.7495 151.938 84.2924 151.996V151.999Z" fill="#352A23"/>
<path d="M110.669 83.1904C110.669 86.9632 110.01 89.5782 108.558 93.1515C104.666 92.9465 101.243 93.1377 97.7385 94.7083C96.01 92.8662 94.2011 87.9881 94.3562 83.1932C94.5335 77.6503 98.0072 73.1489 102.514 73.1489C107.021 73.1489 110.672 77.6447 110.672 83.1932L110.669 83.1904Z" fill="white" stroke="#352A23" stroke-width="0.831018" stroke-miterlimit="10" stroke-linecap="round"/>
<path d="M97.9684 95.0547C97.3119 95.376 96.6748 95.7445 96.1291 96.2403C96.0764 96.2902 95.9933 96.2874 95.9435 96.232C95.9019 96.1877 95.8992 96.1212 95.9296 96.0741C96.3562 95.4231 96.9185 94.8663 97.5086 94.3594C97.9933 93.9716 98.5141 94.7611 97.9656 95.0547H97.9684Z" fill="#352A23"/>
<path d="M108.805 92.7644C109.528 93.0525 110.24 93.3987 110.852 93.8807C110.907 93.9251 110.918 94.0054 110.874 94.0636C110.835 94.1107 110.772 94.1245 110.719 94.1023C110.043 93.8087 109.32 93.6647 108.597 93.5705C107.982 93.4652 108.218 92.5594 108.808 92.7672L108.805 92.7644Z" fill="#352A23"/>
<path d="M100.614 73.7223C98.2065 74.7334 95.7993 75.7112 93.2509 76.3206C93.1484 76.3456 93.0791 76.2015 93.165 76.1406C94.755 74.9328 96.6248 74.1821 98.5029 73.5561C99.1289 73.3511 99.7661 73.1711 100.411 73.0353C100.605 72.9938 100.797 73.1184 100.838 73.3123C100.877 73.4896 100.774 73.6641 100.611 73.7251L100.614 73.7223Z" fill="#352A23"/>
<path d="M100.101 75.2962C98.8326 75.2962 97.0708 75.6979 96.3506 76.7145C96.3506 76.7145 90.913 85.2657 97.9129 94.5647C100.716 93.3875 103.669 92.936 106.738 93.0855C107.58 90.5343 107.971 88.2906 107.971 85.3377C107.971 79.792 104.448 75.2935 100.099 75.2935L100.101 75.2962ZM106.002 83.3571C105.484 84.1327 104.179 84.0053 103.783 83.9471C103.716 83.936 103.666 83.8806 103.666 83.8114V79.6618C103.666 79.6147 103.691 79.5677 103.733 79.5427C103.93 79.4236 104.134 79.3654 104.32 79.3377C104.683 79.2823 105.038 79.4845 105.198 79.8142C105.63 80.7117 106.467 82.659 106.002 83.3571Z" fill="#352A23"/>
<path d="M137.804 82.3066C137.414 86.0573 136.486 88.5919 134.674 91.9963C130.824 91.3896 127.4 91.2234 123.749 92.4229C122.22 90.4118 120.929 85.3731 121.577 80.6169C122.328 75.1211 126.251 71.0075 130.73 71.4729C135.209 71.9383 138.378 76.7887 137.802 82.3066H137.804Z" fill="white" stroke="#352A23" stroke-width="0.831018" stroke-miterlimit="10" stroke-linecap="round"/>
<path d="M124.4 92.6479C123.713 92.9 123.04 93.1992 122.447 93.6368C122.331 93.7282 122.173 93.562 122.27 93.4512C122.76 92.8474 123.378 92.3515 124.018 91.9083C124.209 91.7753 124.47 91.8252 124.6 92.0136C124.758 92.2324 124.652 92.5565 124.4 92.6451V92.6479Z" fill="#352A23"/>
<path d="M135.181 91.6725C135.871 92.0353 136.541 92.4536 137.101 92.9938C137.154 93.0437 137.154 93.124 137.104 93.1766C137.062 93.2209 136.996 93.2265 136.946 93.1988C136.306 92.8359 135.6 92.6171 134.89 92.4509C134.289 92.2819 134.616 91.4065 135.181 91.6725Z" fill="#352A23"/>
<path d="M133.519 71.9548C134.735 72.4811 135.865 73.1681 136.937 73.9409C138.015 74.7166 139.032 75.5836 139.807 76.6778C139.871 76.7609 139.763 76.88 139.674 76.8273C137.971 75.855 136.383 74.7415 134.752 73.6639C134.212 73.3066 133.677 72.9465 133.148 72.5698C132.987 72.4534 132.949 72.229 133.065 72.0684C133.17 71.9216 133.367 71.8772 133.522 71.9576L133.519 71.9548Z" fill="#352A23"/>
<path d="M127.137 73.5145C125.868 73.5145 124.356 73.8968 123.636 74.9161C123.636 74.9161 118.78 83.4258 123.661 92.5808C126.464 91.4035 130.489 91.5033 133.561 91.6528C134.403 89.1016 135.01 86.5116 135.01 83.556C135.01 78.0103 131.486 73.5117 127.137 73.5117V73.5145ZM133.037 81.5754C132.519 82.351 131.215 82.2236 130.818 82.1654C130.752 82.1543 130.702 82.0989 130.702 82.0297V77.8801C130.702 77.833 130.727 77.7859 130.769 77.761C130.965 77.6419 131.17 77.5837 131.356 77.556C131.719 77.5006 132.073 77.7028 132.234 78.0325C132.666 78.93 133.503 80.8773 133.037 81.5754Z" fill="#352A23"/>
<path d="M112.81 94.2512C114.195 92.2401 116.799 89.7969 119.442 90.8467C121.918 92.085 122.849 95.3869 120.686 97.3813C119.846 98.1265 118.755 98.5447 117.658 98.6999C116.813 98.8439 115.963 98.8162 115.118 98.7553C114.885 98.7442 114.871 98.3952 115.104 98.3675C117.217 98.1542 120.123 97.7082 120.76 95.3176C120.99 94.4395 120.702 93.5559 120.17 92.844C119.47 91.747 118.242 91.2816 116.965 91.747C115.683 92.1708 114.506 93.085 113.5 94.0046C113.345 94.1459 113.182 94.301 113.057 94.4395C112.938 94.5808 112.705 94.4035 112.81 94.2512Z" fill="#352A23"/>
<path d="M87.107 93.1159C89.4006 92.8278 91.6582 94.3873 92.4975 96.5036C93.7357 99.3623 92.2815 103.08 89.2926 104.11C88.5834 104.357 87.83 104.454 87.107 104.36C87.0294 104.348 86.974 104.279 86.9823 104.202C86.9907 104.135 87.0433 104.085 87.107 104.077C88.4726 103.905 89.6831 103.235 90.5142 102.257C93.2454 99.066 91.348 93.9774 87.107 93.4926C86.8882 93.4704 86.8882 93.1353 87.107 93.1131V93.1159Z" fill="#352A23"/>
<path d="M101.5 113.784C105.148 112.341 110.422 111.906 112.755 115.745C112.863 115.972 113.084 116.274 113.118 116.529C113.179 116.77 113.176 117.313 112.777 117.138C112.378 116.897 112.262 116.529 112.046 116.183C109.852 112.806 105.118 113.454 101.808 114.551C101.303 114.739 100.999 113.994 101.5 113.778V113.784Z" fill="#352A23"/>
<path d="M118.229 117.902C118.229 117.902 117.253 112.697 110.874 114.345" stroke="#352A23" stroke-width="0.831018" stroke-miterlimit="10" stroke-linecap="round"/>
<path d="M58.2068 54.144L61.0516 138.368" stroke="#352A23" stroke-width="0.831018" stroke-miterlimit="10" stroke-linecap="round"/>
<path d="M134.276 1.3518C127.929 1.3518 122.486 4.73958 120.176 9.55948C119.506 4.73681 114.88 1 109.265 1C103.19 1 98.2675 5.37115 98.2675 10.7645C98.2675 12.878 98.7772 15.2852 100.063 16.8835L93.1983 14.504C92.01 14.1024 90.7247 13.8808 89.3839 13.8808C83.3452 13.8808 78.4478 18.3378 78.4478 23.8364C78.4478 29.3349 83.3425 33.792 89.3839 33.792C89.9767 33.792 90.5612 33.7476 91.1291 33.6645L95.1346 53.1242C106.824 55.379 118.929 54.7253 131.176 52.0189L133.536 28.0912C133.782 28.1023 134.029 28.1078 134.278 28.1078C142.719 28.1078 149.563 22.1189 149.563 14.7284C149.563 7.3379 142.716 1.3518 134.276 1.3518Z" fill="#FFF4E0" stroke="#352A23" stroke-width="0.831018" stroke-miterlimit="10" stroke-linecap="round"/>
<path d="M92.8215 41.884C92.8215 41.884 111.63 47.4269 132.336 40.2524" stroke="#352A23" stroke-width="0.831018" stroke-miterlimit="10" stroke-linecap="round"/>
<path d="M110.051 44.3106C108.808 43.6236 107.91 42.4768 107.148 41.3161C106.428 40.2136 105.844 38.9117 105.373 37.6846C105.315 37.5378 105.533 37.4353 105.605 37.5821C105.605 37.5821 106.04 38.4824 106.04 38.4851C106.791 39.9256 107.7 41.3549 108.88 42.4713C109.323 42.8757 109.83 43.3023 110.375 43.546C110.91 43.7593 110.58 44.546 110.054 44.3133L110.051 44.3106Z" fill="#352A23"/>
<path d="M122.082 42.4878C124.187 41.1886 125.298 38.7177 125.799 36.3687C125.96 35.6457 126.062 34.6014 126.12 33.8535C126.132 33.7067 126.364 33.7122 126.359 33.8673L126.32 35.1526C126.159 37.3133 125.622 39.485 124.378 41.2939C123.855 42.0418 123.259 42.7177 122.475 43.2191C122.278 43.3382 122.024 43.2772 121.904 43.0806C121.774 42.87 121.86 42.5903 122.084 42.4878H122.082Z" fill="#352A23"/>
<path d="M120.586 9.4901C121.073 14.1383 118.951 18.8252 114.614 20.8363C114.483 20.8972 114.375 20.7061 114.508 20.6285C118.555 18.5316 120.417 14.0247 119.769 9.62306C119.666 9.06351 120.503 8.91947 120.589 9.48733L120.586 9.4901Z" fill="#352A23"/>
<path d="M172.12 97.2377L170.098 98.9357C170.048 98.98 169.973 98.9108 170.012 98.8581L171.505 96.6809C171.885 96.1795 172.585 96.8111 172.12 97.2404V97.2377Z" fill="#352A23"/>
<path d="M168.754 125.049C171.996 125.049 174.624 122.421 174.624 119.179C174.624 115.938 171.996 113.31 168.754 113.31C165.513 113.31 162.885 115.938 162.885 119.179C162.885 122.421 165.513 125.049 168.754 125.049Z" fill="#FFF4E0" stroke="#352A23" stroke-width="0.831018" stroke-miterlimit="10" stroke-linecap="round"/>
<path d="M164.995 123.307L167.018 121.609C167.067 121.565 167.142 121.634 167.104 121.686L165.61 123.864C165.231 124.365 164.53 123.734 164.995 123.304V123.307Z" fill="#352A23"/>
<path d="M44.8498 147.719C45.2431 146.811 45.4592 145.827 45.4592 144.797C45.4592 140.301 41.365 136.659 36.318 136.659C35.487 136.659 34.6836 136.758 33.9191 136.944C34.3817 135.988 34.487 135.046 34.1435 134.229C33.1656 131.9 28.9302 131.459 24.6837 133.246C20.44 135.03 17.7918 138.365 18.7697 140.695C19.1187 141.523 19.8804 142.11 20.9054 142.445C18.7475 144.764 16.8611 147.911 16.8611 152.046C16.8611 158.102 20.3597 163.007 24.6754 163.007C25.3236 163.007 25.9552 162.894 26.5563 162.686C27.5424 163.825 29.1186 164.564 30.9025 164.564C33.0244 164.564 34.8554 163.517 35.7418 161.996C36.6532 162.481 37.6587 162.75 38.7113 162.75C42.9024 162.75 46.3013 158.514 46.3013 153.29C46.3013 151.207 45.7611 149.284 44.8442 147.722L44.8498 147.719Z" fill="#FFF4E0" stroke="#352A23" stroke-width="0.831018" stroke-miterlimit="10" stroke-linecap="round"/>
<path d="M23.5784 150.307C23.5286 154.539 24.4482 158.949 26.9025 162.453C27.2321 162.902 26.5562 163.401 26.2266 162.941C24.4454 160.135 23.6338 156.838 23.4261 153.553C23.3624 152.467 23.354 151.381 23.4427 150.298C23.4482 150.215 23.584 150.218 23.5784 150.309V150.307Z" fill="#352A23"/>
<path d="M30.534 149.528C31.3955 153.88 32.8526 158.489 36.0409 161.703C36.4398 162.082 35.8775 162.689 35.4703 162.307C33.0742 159.703 31.8553 156.307 31.0382 152.93C30.7778 151.811 30.5617 150.683 30.426 149.542C30.4177 149.476 30.5257 149.454 30.5368 149.528H30.534Z" fill="#352A23"/>
<path d="M20.9084 142.442C20.9084 142.442 21.637 141.78 23.637 140.755Z" fill="white"/>
<path d="M20.6284 142.134C21.5785 141.525 22.5951 141.145 23.6366 140.755C22.7835 141.356 21.8887 141.993 21.1879 142.752C20.7613 143.212 20.1297 142.514 20.6311 142.134H20.6284Z" fill="#352A23"/>
<path d="M34.4759 136.822C34.4759 136.822 33.5202 137.057 31.5535 138.143Z" fill="white"/>
<path d="M34.5756 137.224C33.5535 137.384 32.5258 137.769 31.5535 138.14C32.4593 137.495 33.3402 136.866 34.3762 136.417C34.9717 136.212 35.1989 137.129 34.5756 137.224Z" fill="#352A23"/>
<path d="M39.7086 145.398C39.7086 145.398 38.9662 149.395 41.5479 152.434Z" fill="white"/>
<path d="M39.811 145.418C40.0492 147.861 40.5589 150.154 41.6032 152.387C41.6393 152.456 41.5506 152.531 41.4897 152.484C39.8415 151.351 39.1102 149.229 39.1905 147.287C39.1573 147.093 39.5118 144.803 39.8138 145.418H39.811Z" fill="#352A23"/>
<path d="M40.3095 150.057L52.4894 149.071C54.5337 149.107 58.4894 152.184 60.4921 153.979C60.5004 153.988 60.5088 153.99 60.5171 153.999C63.024 156.312 66.7386 157.777 70.8854 157.777C78.4393 157.777 84.5612 152.921 84.5612 146.932C84.5612 140.943 78.4393 136.087 70.8854 136.087C65.5669 136.087 60.963 138.497 58.6999 142.01C58.6971 142.013 58.6944 142.015 58.6888 142.021C57.7359 143.287 54.4202 145.713 52.4922 145.949L39.7112 146.982C39.4508 148.101 39.7222 149.123 40.3067 150.057H40.3095Z" fill="#C1855F" stroke="#352A23" stroke-width="0.831018" stroke-miterlimit="10" stroke-linecap="round"/>
<path d="M59.8771 149.778C61.7608 150.079 63.6112 150.617 65.3286 151.459C65.8992 151.739 66.481 152.132 66.9546 152.406C69.1125 153.495 71.7828 153.243 74.0931 152.714C74.1928 152.681 74.2593 152.841 74.154 152.88C72.3923 153.6 70.4034 153.966 68.4976 153.669C67.1956 153.542 66.0876 152.744 64.9796 152.138C63.3286 151.296 61.5613 150.7 59.7968 150.113C59.5974 150.055 59.6583 149.739 59.8716 149.772L59.8771 149.778Z" fill="#352A23"/>
<path d="M70.6278 138.977C74.2233 139.19 78.5197 140.492 80.6526 143.606C81.7052 145.101 82.082 147.074 81.0127 148.667C80.6775 149.146 80.2703 149.57 79.7634 149.869C79.6526 149.935 79.5418 149.775 79.6388 149.694C80.3618 148.96 80.8825 147.977 80.8964 146.932C80.9296 145.935 80.4726 144.919 79.9019 144.115C78.6831 142.351 76.769 141.282 74.7856 140.498C73.4394 139.977 72.0239 139.575 70.5945 139.298C70.4034 139.273 70.4172 138.966 70.625 138.977H70.6278Z" fill="#352A23"/>
<path d="M131.085 137.503C127.849 157.135 91.1015 163.315 91.1015 163.315C86.4949 163.331 83.6833 157.567 87.7303 154.589C87.7303 154.589 118.004 145.309 116.73 137.891L131.087 137.503H131.085Z" fill="#352A23" stroke="#352A23" stroke-width="0.831018" stroke-miterlimit="10" stroke-linecap="round"/>
<path d="M172.514 63.4895L162.518 63.76C161.934 63.7758 161.473 64.2622 161.489 64.8463C161.504 65.4305 161.991 65.8913 162.575 65.8755L172.571 65.605C173.155 65.5892 173.616 65.1028 173.6 64.5186C173.585 63.9344 173.098 63.4737 172.514 63.4895Z" fill="#352A23"/>
<path d="M172.65 68.5315L162.654 68.8019C162.07 68.8178 161.609 69.3042 161.625 69.8883C161.641 70.4725 162.127 70.9333 162.711 70.9175L172.708 70.647C173.292 70.6312 173.753 70.1448 173.737 69.5606C173.721 68.9764 173.235 68.5156 172.65 68.5315Z" fill="#352A23"/>
<path d="M172.784 73.5759L162.788 73.8464C162.204 73.8622 161.743 74.3486 161.759 74.9328C161.774 75.517 162.261 75.9777 162.845 75.9619L172.841 75.6914C173.425 75.6756 173.886 75.1892 173.87 74.605C173.855 74.0208 173.368 73.5601 172.784 73.5759Z" fill="#352A23"/>
<path d="M172.92 78.6174L162.924 78.8879C162.34 78.9037 161.879 79.3901 161.895 79.9743C161.911 80.5585 162.397 81.0192 162.981 81.0034L172.977 80.7329C173.562 80.7171 174.022 80.2307 174.007 79.6465C173.991 79.0624 173.504 78.6016 172.92 78.6174Z" fill="#352A23"/>
<mask id="path-78-outside-1_1738_18612" maskUnits="userSpaceOnUse" x="0" y="226.015" width="227" height="39" fill="black">
<rect fill="white" y="226.015" width="227" height="39"/>
<path d="M12.376 262.879C10.616 262.879 8.824 262.655 7 262.207C5.176 261.791 3.656 261.231 2.44 260.527L2.68 253.999H3.16L4.648 257.119C5.096 258.015 5.576 258.815 6.088 259.519C6.6 260.191 7.304 260.719 8.2 261.103C8.84 261.423 9.448 261.647 10.024 261.775C10.632 261.871 11.304 261.919 12.04 261.919C13.992 261.919 15.528 261.391 16.648 260.335C17.8 259.279 18.376 257.919 18.376 256.255C18.376 254.687 17.992 253.471 17.224 252.607C16.456 251.711 15.224 250.847 13.528 250.015L11.56 249.151C8.808 247.935 6.648 246.543 5.08 244.975C3.544 243.375 2.776 241.263 2.776 238.639C2.776 236.751 3.256 235.119 4.216 233.743C5.208 232.367 6.568 231.311 8.296 230.575C10.056 229.839 12.104 229.471 14.44 229.471C16.136 229.471 17.736 229.695 19.24 230.143C20.776 230.591 22.104 231.199 23.224 231.967L22.936 237.727H22.456L20.488 234.127C19.944 233.007 19.4 232.223 18.856 231.775C18.312 231.295 17.688 230.959 16.984 230.767C16.568 230.639 16.184 230.559 15.832 230.527C15.48 230.463 15.032 230.431 14.488 230.431C12.856 230.431 11.48 230.911 10.36 231.871C9.24 232.799 8.68 234.063 8.68 235.663C8.68 237.295 9.112 238.607 9.976 239.599C10.84 240.559 12.104 241.423 13.768 242.191L15.976 243.151C19.048 244.495 21.256 245.935 22.6 247.471C23.944 248.975 24.616 250.927 24.616 253.327C24.616 256.143 23.544 258.447 21.4 260.239C19.288 261.999 16.28 262.879 12.376 262.879ZM42.3993 238.207C44.4793 238.207 46.2553 238.639 47.7273 239.503C49.1993 240.335 50.3193 241.487 51.0873 242.959C51.8873 244.399 52.2873 246.047 52.2873 247.903C52.2873 248.255 52.2713 248.623 52.2393 249.007C52.2073 249.359 52.1433 249.679 52.0473 249.967H37.7433C37.7753 253.423 38.3833 255.919 39.5673 257.455C40.7833 258.959 42.5753 259.711 44.9433 259.711C46.5433 259.711 47.8393 259.455 48.8313 258.943C49.8233 258.431 50.7513 257.679 51.6153 256.687L52.0953 257.119C51.1033 258.879 49.7753 260.255 48.1113 261.247C46.4793 262.239 44.5113 262.735 42.2073 262.735C39.9353 262.735 37.9193 262.255 36.1593 261.295C34.3993 260.303 33.0233 258.895 32.0313 257.071C31.0393 255.247 30.5433 253.071 30.5433 250.543C30.5433 247.919 31.1193 245.695 32.2713 243.871C33.4233 242.015 34.8953 240.607 36.6873 239.647C38.5113 238.687 40.4153 238.207 42.3993 238.207ZM42.2553 239.167C41.3273 239.167 40.5273 239.455 39.8553 240.031C39.2153 240.575 38.7033 241.567 38.3193 243.007C37.9673 244.415 37.7753 246.415 37.7433 249.007H45.9513C46.2713 245.519 46.1433 243.007 45.5673 241.471C44.9913 239.935 43.8873 239.167 42.2553 239.167ZM64.8599 262.735C63.0039 262.735 61.4359 262.207 60.1559 261.151C58.9079 260.095 58.2839 258.575 58.2839 256.591C58.2839 255.087 59.0519 253.711 60.5879 252.463C62.1239 251.183 64.5399 250.223 67.8359 249.583C68.3479 249.487 68.9239 249.391 69.5639 249.295C70.2039 249.167 70.8759 249.039 71.5799 248.911V245.119C71.5799 242.943 71.3079 241.423 70.7639 240.559C70.2519 239.663 69.4359 239.215 68.3159 239.215C67.5479 239.215 66.9399 239.471 66.4919 239.983C66.0439 240.463 65.7559 241.311 65.6279 242.527L65.5319 243.055C65.4679 244.431 65.1319 245.439 64.5239 246.079C63.9159 246.719 63.1639 247.039 62.2679 247.039C61.4359 247.039 60.7479 246.783 60.2039 246.271C59.6599 245.759 59.3879 245.071 59.3879 244.207C59.3879 242.895 59.8359 241.791 60.7319 240.895C61.6599 239.999 62.8759 239.327 64.3799 238.879C65.8839 238.431 67.5159 238.207 69.2759 238.207C72.1239 238.207 74.3159 238.911 75.8519 240.319C77.4199 241.695 78.2039 243.951 78.2039 247.087V257.695C78.2039 259.135 78.8759 259.855 80.2199 259.855H81.2759L81.7079 260.239C81.0999 261.007 80.4279 261.599 79.6919 262.015C78.9879 262.431 77.9799 262.639 76.6679 262.639C75.2599 262.639 74.1399 262.319 73.3079 261.679C72.5079 261.007 71.9799 260.127 71.7239 259.039C70.7639 260.063 69.7719 260.943 68.7479 261.679C67.7559 262.383 66.4599 262.735 64.8599 262.735ZM67.7879 259.807C68.4279 259.807 69.0199 259.663 69.5639 259.375C70.1399 259.055 70.8119 258.575 71.5799 257.935V249.871C71.2599 249.935 70.9399 249.999 70.6199 250.063C70.2999 250.127 69.9319 250.191 69.5159 250.255C68.0439 250.639 66.8599 251.295 65.9639 252.223C65.0999 253.119 64.6679 254.335 64.6679 255.871C64.6679 257.183 64.9719 258.175 65.5799 258.847C66.1879 259.487 66.9239 259.807 67.7879 259.807ZM94.3596 262.735C92.7916 262.735 91.3836 262.543 90.1356 262.159C88.8876 261.807 87.7356 261.359 86.6796 260.815L86.7276 255.103H87.2076L88.8396 257.983C89.5436 259.263 90.3116 260.223 91.1436 260.863C92.0076 261.471 93.0956 261.775 94.4076 261.775C95.9436 261.775 97.1756 261.439 98.1036 260.767C99.0636 260.063 99.5436 259.135 99.5436 257.983C99.5436 256.927 99.2076 256.063 98.5356 255.391C97.8636 254.719 96.6156 254.111 94.7916 253.567L92.7756 252.943C90.8236 252.367 89.2876 251.471 88.1676 250.255C87.0476 249.039 86.4876 247.551 86.4876 245.791C86.4876 243.679 87.3196 241.887 88.9836 240.415C90.6476 238.943 93.0316 238.207 96.1356 238.207C97.3836 238.207 98.5516 238.351 99.6396 238.639C100.76 238.895 101.832 239.295 102.856 239.839L102.568 245.023H102.088L100.408 242.047C99.7996 240.991 99.1916 240.255 98.5836 239.839C98.0076 239.391 97.1276 239.167 95.9436 239.167C94.8556 239.167 93.8316 239.471 92.8716 240.079C91.9116 240.687 91.4316 241.551 91.4316 242.671C91.4316 243.759 91.8316 244.623 92.6316 245.263C93.4636 245.903 94.6796 246.495 96.2796 247.039L98.4396 247.663C100.744 248.367 102.392 249.343 103.384 250.591C104.376 251.807 104.872 253.279 104.872 255.007C104.872 257.343 103.944 259.215 102.088 260.623C100.264 262.031 97.6876 262.735 94.3596 262.735ZM122.466 262.735C120.034 262.735 117.922 262.239 116.13 261.247C114.338 260.223 112.946 258.783 111.954 256.927C110.994 255.071 110.514 252.895 110.514 250.399C110.514 247.903 111.026 245.743 112.05 243.919C113.106 242.095 114.53 240.687 116.322 239.695C118.146 238.703 120.194 238.207 122.466 238.207C124.738 238.207 126.77 238.703 128.562 239.695C130.354 240.655 131.762 242.047 132.786 243.871C133.842 245.695 134.37 247.871 134.37 250.399C134.37 252.927 133.874 255.119 132.882 256.975C131.922 258.799 130.546 260.223 128.754 261.247C126.994 262.239 124.898 262.735 122.466 262.735ZM122.466 261.775C123.586 261.775 124.482 261.455 125.154 260.815C125.826 260.175 126.306 259.039 126.594 257.407C126.914 255.775 127.074 253.471 127.074 250.495C127.074 247.487 126.914 245.167 126.594 243.535C126.306 241.903 125.826 240.767 125.154 240.127C124.482 239.487 123.586 239.167 122.466 239.167C121.346 239.167 120.434 239.487 119.73 240.127C119.058 240.767 118.562 241.903 118.242 243.535C117.954 245.167 117.81 247.487 117.81 250.495C117.81 253.471 117.954 255.775 118.242 257.407C118.562 259.039 119.058 260.175 119.73 260.815C120.434 261.455 121.346 261.775 122.466 261.775ZM139.838 262.015V261.535L140.51 261.343C141.63 261.023 142.19 260.239 142.19 258.991V243.967C142.19 243.263 142.078 242.751 141.854 242.431C141.63 242.079 141.198 241.839 140.558 241.711L139.838 241.519V241.039L148.046 238.255L148.526 238.735L148.91 241.615C150.03 240.623 151.294 239.807 152.702 239.167C154.11 238.527 155.502 238.207 156.878 238.207C158.99 238.207 160.606 238.783 161.726 239.935C162.878 241.087 163.454 242.847 163.454 245.215V259.039C163.454 260.287 164.062 261.071 165.278 261.391L165.71 261.535V262.015H154.382V261.535L155.006 261.343C156.126 260.991 156.686 260.207 156.686 258.991V243.679C156.686 241.631 155.662 240.607 153.614 240.607C152.206 240.607 150.67 241.311 149.006 242.719V259.039C149.006 260.287 149.566 261.071 150.686 261.391L151.118 261.535V262.015H139.838ZM182.996 238.207C185.076 238.207 186.852 238.639 188.324 239.503C189.796 240.335 190.916 241.487 191.684 242.959C192.484 244.399 192.884 246.047 192.884 247.903C192.884 248.255 192.868 248.623 192.836 249.007C192.804 249.359 192.74 249.679 192.644 249.967H178.34C178.372 253.423 178.98 255.919 180.164 257.455C181.38 258.959 183.172 259.711 185.54 259.711C187.14 259.711 188.436 259.455 189.428 258.943C190.42 258.431 191.348 257.679 192.212 256.687L192.692 257.119C191.7 258.879 190.372 260.255 188.708 261.247C187.076 262.239 185.108 262.735 182.804 262.735C180.532 262.735 178.516 262.255 176.756 261.295C174.996 260.303 173.62 258.895 172.628 257.071C171.636 255.247 171.14 253.071 171.14 250.543C171.14 247.919 171.716 245.695 172.868 243.871C174.02 242.015 175.492 240.607 177.284 239.647C179.108 238.687 181.012 238.207 182.996 238.207ZM182.852 239.167C181.924 239.167 181.124 239.455 180.452 240.031C179.812 240.575 179.3 241.567 178.916 243.007C178.564 244.415 178.372 246.415 178.34 249.007H186.548C186.868 245.519 186.74 243.007 186.164 241.471C185.588 239.935 184.484 239.167 182.852 239.167ZM208.812 262.735C206.924 262.735 205.228 262.319 203.724 261.487C202.22 260.623 201.02 259.311 200.124 257.551C199.26 255.759 198.828 253.471 198.828 250.687C198.828 247.871 199.324 245.551 200.316 243.727C201.308 241.871 202.62 240.495 204.252 239.599C205.884 238.671 207.66 238.207 209.58 238.207C210.7 238.207 211.772 238.319 212.796 238.543C213.82 238.767 214.732 239.103 215.532 239.551V233.311C215.532 232.639 215.42 232.143 215.196 231.823C215.004 231.503 214.572 231.279 213.9 231.151L212.988 230.959V230.479L221.724 228.367L222.252 228.799L222.06 235.519V258.991C222.06 259.631 222.172 260.159 222.396 260.575C222.62 260.959 223.036 261.231 223.644 261.391L224.076 261.535V262.015L215.868 262.543L215.436 260.815C214.572 261.391 213.58 261.855 212.46 262.207C211.372 262.559 210.156 262.735 208.812 262.735ZM211.596 260.959C212.94 260.959 214.172 260.559 215.292 259.759V240.703C214.108 239.935 212.892 239.551 211.644 239.551C210.108 239.551 208.796 240.447 207.708 242.239C206.62 243.999 206.076 246.783 206.076 250.591C206.076 254.399 206.588 257.087 207.612 258.655C208.636 260.191 209.964 260.959 211.596 260.959Z"/>
</mask>
<path d="M12.376 262.879C10.616 262.879 8.824 262.655 7 262.207C5.176 261.791 3.656 261.231 2.44 260.527L2.68 253.999H3.16L4.648 257.119C5.096 258.015 5.576 258.815 6.088 259.519C6.6 260.191 7.304 260.719 8.2 261.103C8.84 261.423 9.448 261.647 10.024 261.775C10.632 261.871 11.304 261.919 12.04 261.919C13.992 261.919 15.528 261.391 16.648 260.335C17.8 259.279 18.376 257.919 18.376 256.255C18.376 254.687 17.992 253.471 17.224 252.607C16.456 251.711 15.224 250.847 13.528 250.015L11.56 249.151C8.808 247.935 6.648 246.543 5.08 244.975C3.544 243.375 2.776 241.263 2.776 238.639C2.776 236.751 3.256 235.119 4.216 233.743C5.208 232.367 6.568 231.311 8.296 230.575C10.056 229.839 12.104 229.471 14.44 229.471C16.136 229.471 17.736 229.695 19.24 230.143C20.776 230.591 22.104 231.199 23.224 231.967L22.936 237.727H22.456L20.488 234.127C19.944 233.007 19.4 232.223 18.856 231.775C18.312 231.295 17.688 230.959 16.984 230.767C16.568 230.639 16.184 230.559 15.832 230.527C15.48 230.463 15.032 230.431 14.488 230.431C12.856 230.431 11.48 230.911 10.36 231.871C9.24 232.799 8.68 234.063 8.68 235.663C8.68 237.295 9.112 238.607 9.976 239.599C10.84 240.559 12.104 241.423 13.768 242.191L15.976 243.151C19.048 244.495 21.256 245.935 22.6 247.471C23.944 248.975 24.616 250.927 24.616 253.327C24.616 256.143 23.544 258.447 21.4 260.239C19.288 261.999 16.28 262.879 12.376 262.879ZM42.3993 238.207C44.4793 238.207 46.2553 238.639 47.7273 239.503C49.1993 240.335 50.3193 241.487 51.0873 242.959C51.8873 244.399 52.2873 246.047 52.2873 247.903C52.2873 248.255 52.2713 248.623 52.2393 249.007C52.2073 249.359 52.1433 249.679 52.0473 249.967H37.7433C37.7753 253.423 38.3833 255.919 39.5673 257.455C40.7833 258.959 42.5753 259.711 44.9433 259.711C46.5433 259.711 47.8393 259.455 48.8313 258.943C49.8233 258.431 50.7513 257.679 51.6153 256.687L52.0953 257.119C51.1033 258.879 49.7753 260.255 48.1113 261.247C46.4793 262.239 44.5113 262.735 42.2073 262.735C39.9353 262.735 37.9193 262.255 36.1593 261.295C34.3993 260.303 33.0233 258.895 32.0313 257.071C31.0393 255.247 30.5433 253.071 30.5433 250.543C30.5433 247.919 31.1193 245.695 32.2713 243.871C33.4233 242.015 34.8953 240.607 36.6873 239.647C38.5113 238.687 40.4153 238.207 42.3993 238.207ZM42.2553 239.167C41.3273 239.167 40.5273 239.455 39.8553 240.031C39.2153 240.575 38.7033 241.567 38.3193 243.007C37.9673 244.415 37.7753 246.415 37.7433 249.007H45.9513C46.2713 245.519 46.1433 243.007 45.5673 241.471C44.9913 239.935 43.8873 239.167 42.2553 239.167ZM64.8599 262.735C63.0039 262.735 61.4359 262.207 60.1559 261.151C58.9079 260.095 58.2839 258.575 58.2839 256.591C58.2839 255.087 59.0519 253.711 60.5879 252.463C62.1239 251.183 64.5399 250.223 67.8359 249.583C68.3479 249.487 68.9239 249.391 69.5639 249.295C70.2039 249.167 70.8759 249.039 71.5799 248.911V245.119C71.5799 242.943 71.3079 241.423 70.7639 240.559C70.2519 239.663 69.4359 239.215 68.3159 239.215C67.5479 239.215 66.9399 239.471 66.4919 239.983C66.0439 240.463 65.7559 241.311 65.6279 242.527L65.5319 243.055C65.4679 244.431 65.1319 245.439 64.5239 246.079C63.9159 246.719 63.1639 247.039 62.2679 247.039C61.4359 247.039 60.7479 246.783 60.2039 246.271C59.6599 245.759 59.3879 245.071 59.3879 244.207C59.3879 242.895 59.8359 241.791 60.7319 240.895C61.6599 239.999 62.8759 239.327 64.3799 238.879C65.8839 238.431 67.5159 238.207 69.2759 238.207C72.1239 238.207 74.3159 238.911 75.8519 240.319C77.4199 241.695 78.2039 243.951 78.2039 247.087V257.695C78.2039 259.135 78.8759 259.855 80.2199 259.855H81.2759L81.7079 260.239C81.0999 261.007 80.4279 261.599 79.6919 262.015C78.9879 262.431 77.9799 262.639 76.6679 262.639C75.2599 262.639 74.1399 262.319 73.3079 261.679C72.5079 261.007 71.9799 260.127 71.7239 259.039C70.7639 260.063 69.7719 260.943 68.7479 261.679C67.7559 262.383 66.4599 262.735 64.8599 262.735ZM67.7879 259.807C68.4279 259.807 69.0199 259.663 69.5639 259.375C70.1399 259.055 70.8119 258.575 71.5799 257.935V249.871C71.2599 249.935 70.9399 249.999 70.6199 250.063C70.2999 250.127 69.9319 250.191 69.5159 250.255C68.0439 250.639 66.8599 251.295 65.9639 252.223C65.0999 253.119 64.6679 254.335 64.6679 255.871C64.6679 257.183 64.9719 258.175 65.5799 258.847C66.1879 259.487 66.9239 259.807 67.7879 259.807ZM94.3596 262.735C92.7916 262.735 91.3836 262.543 90.1356 262.159C88.8876 261.807 87.7356 261.359 86.6796 260.815L86.7276 255.103H87.2076L88.8396 257.983C89.5436 259.263 90.3116 260.223 91.1436 260.863C92.0076 261.471 93.0956 261.775 94.4076 261.775C95.9436 261.775 97.1756 261.439 98.1036 260.767C99.0636 260.063 99.5436 259.135 99.5436 257.983C99.5436 256.927 99.2076 256.063 98.5356 255.391C97.8636 254.719 96.6156 254.111 94.7916 253.567L92.7756 252.943C90.8236 252.367 89.2876 251.471 88.1676 250.255C87.0476 249.039 86.4876 247.551 86.4876 245.791C86.4876 243.679 87.3196 241.887 88.9836 240.415C90.6476 238.943 93.0316 238.207 96.1356 238.207C97.3836 238.207 98.5516 238.351 99.6396 238.639C100.76 238.895 101.832 239.295 102.856 239.839L102.568 245.023H102.088L100.408 242.047C99.7996 240.991 99.1916 240.255 98.5836 239.839C98.0076 239.391 97.1276 239.167 95.9436 239.167C94.8556 239.167 93.8316 239.471 92.8716 240.079C91.9116 240.687 91.4316 241.551 91.4316 242.671C91.4316 243.759 91.8316 244.623 92.6316 245.263C93.4636 245.903 94.6796 246.495 96.2796 247.039L98.4396 247.663C100.744 248.367 102.392 249.343 103.384 250.591C104.376 251.807 104.872 253.279 104.872 255.007C104.872 257.343 103.944 259.215 102.088 260.623C100.264 262.031 97.6876 262.735 94.3596 262.735ZM122.466 262.735C120.034 262.735 117.922 262.239 116.13 261.247C114.338 260.223 112.946 258.783 111.954 256.927C110.994 255.071 110.514 252.895 110.514 250.399C110.514 247.903 111.026 245.743 112.05 243.919C113.106 242.095 114.53 240.687 116.322 239.695C118.146 238.703 120.194 238.207 122.466 238.207C124.738 238.207 126.77 238.703 128.562 239.695C130.354 240.655 131.762 242.047 132.786 243.871C133.842 245.695 134.37 247.871 134.37 250.399C134.37 252.927 133.874 255.119 132.882 256.975C131.922 258.799 130.546 260.223 128.754 261.247C126.994 262.239 124.898 262.735 122.466 262.735ZM122.466 261.775C123.586 261.775 124.482 261.455 125.154 260.815C125.826 260.175 126.306 259.039 126.594 257.407C126.914 255.775 127.074 253.471 127.074 250.495C127.074 247.487 126.914 245.167 126.594 243.535C126.306 241.903 125.826 240.767 125.154 240.127C124.482 239.487 123.586 239.167 122.466 239.167C121.346 239.167 120.434 239.487 119.73 240.127C119.058 240.767 118.562 241.903 118.242 243.535C117.954 245.167 117.81 247.487 117.81 250.495C117.81 253.471 117.954 255.775 118.242 257.407C118.562 259.039 119.058 260.175 119.73 260.815C120.434 261.455 121.346 261.775 122.466 261.775ZM139.838 262.015V261.535L140.51 261.343C141.63 261.023 142.19 260.239 142.19 258.991V243.967C142.19 243.263 142.078 242.751 141.854 242.431C141.63 242.079 141.198 241.839 140.558 241.711L139.838 241.519V241.039L148.046 238.255L148.526 238.735L148.91 241.615C150.03 240.623 151.294 239.807 152.702 239.167C154.11 238.527 155.502 238.207 156.878 238.207C158.99 238.207 160.606 238.783 161.726 239.935C162.878 241.087 163.454 242.847 163.454 245.215V259.039C163.454 260.287 164.062 261.071 165.278 261.391L165.71 261.535V262.015H154.382V261.535L155.006 261.343C156.126 260.991 156.686 260.207 156.686 258.991V243.679C156.686 241.631 155.662 240.607 153.614 240.607C152.206 240.607 150.67 241.311 149.006 242.719V259.039C149.006 260.287 149.566 261.071 150.686 261.391L151.118 261.535V262.015H139.838ZM182.996 238.207C185.076 238.207 186.852 238.639 188.324 239.503C189.796 240.335 190.916 241.487 191.684 242.959C192.484 244.399 192.884 246.047 192.884 247.903C192.884 248.255 192.868 248.623 192.836 249.007C192.804 249.359 192.74 249.679 192.644 249.967H178.34C178.372 253.423 178.98 255.919 180.164 257.455C181.38 258.959 183.172 259.711 185.54 259.711C187.14 259.711 188.436 259.455 189.428 258.943C190.42 258.431 191.348 257.679 192.212 256.687L192.692 257.119C191.7 258.879 190.372 260.255 188.708 261.247C187.076 262.239 185.108 262.735 182.804 262.735C180.532 262.735 178.516 262.255 176.756 261.295C174.996 260.303 173.62 258.895 172.628 257.071C171.636 255.247 171.14 253.071 171.14 250.543C171.14 247.919 171.716 245.695 172.868 243.871C174.02 242.015 175.492 240.607 177.284 239.647C179.108 238.687 181.012 238.207 182.996 238.207ZM182.852 239.167C181.924 239.167 181.124 239.455 180.452 240.031C179.812 240.575 179.3 241.567 178.916 243.007C178.564 244.415 178.372 246.415 178.34 249.007H186.548C186.868 245.519 186.74 243.007 186.164 241.471C185.588 239.935 184.484 239.167 182.852 239.167ZM208.812 262.735C206.924 262.735 205.228 262.319 203.724 261.487C202.22 260.623 201.02 259.311 200.124 257.551C199.26 255.759 198.828 253.471 198.828 250.687C198.828 247.871 199.324 245.551 200.316 243.727C201.308 241.871 202.62 240.495 204.252 239.599C205.884 238.671 207.66 238.207 209.58 238.207C210.7 238.207 211.772 238.319 212.796 238.543C213.82 238.767 214.732 239.103 215.532 239.551V233.311C215.532 232.639 215.42 232.143 215.196 231.823C215.004 231.503 214.572 231.279 213.9 231.151L212.988 230.959V230.479L221.724 228.367L222.252 228.799L222.06 235.519V258.991C222.06 259.631 222.172 260.159 222.396 260.575C222.62 260.959 223.036 261.231 223.644 261.391L224.076 261.535V262.015L215.868 262.543L215.436 260.815C214.572 261.391 213.58 261.855 212.46 262.207C211.372 262.559 210.156 262.735 208.812 262.735ZM211.596 260.959C212.94 260.959 214.172 260.559 215.292 259.759V240.703C214.108 239.935 212.892 239.551 211.644 239.551C210.108 239.551 208.796 240.447 207.708 242.239C206.62 243.999 206.076 246.783 206.076 250.591C206.076 254.399 206.588 257.087 207.612 258.655C208.636 260.191 209.964 260.959 211.596 260.959Z" fill="black"/>
<path d="M7 262.207L7.47705 260.264L7.46092 260.26L7.44472 260.257L7 262.207ZM2.44 260.527L0.44135 260.453L0.397167 261.655L1.43793 262.258L2.44 260.527ZM2.68 253.999V251.999H0.752178L0.68135 253.925L2.68 253.999ZM3.16 253.999L4.96521 253.138L4.42197 251.999H3.16V253.999ZM4.648 257.119L2.84279 257.98L2.85081 257.996L2.85915 258.013L4.648 257.119ZM6.088 259.519L4.47053 260.695L4.48363 260.713L4.49714 260.731L6.088 259.519ZM8.2 261.103L9.09443 259.314L9.04186 259.288L8.98784 259.264L8.2 261.103ZM10.024 261.775L9.59014 263.727L9.65075 263.74L9.71208 263.75L10.024 261.775ZM16.648 260.335L15.2966 258.86L15.2862 258.87L15.276 258.879L16.648 260.335ZM17.224 252.607L15.7055 253.908L15.7172 253.922L15.7292 253.935L17.224 252.607ZM13.528 250.015L14.4089 248.219L14.3708 248.2L14.332 248.183L13.528 250.015ZM11.56 249.151L10.7517 250.98L10.756 250.982L11.56 249.151ZM5.08 244.975L3.63723 246.36L3.65136 246.374L3.66579 246.389L5.08 244.975ZM4.216 233.743L2.59365 232.573L2.5846 232.586L2.57575 232.598L4.216 233.743ZM8.296 230.575L7.52437 228.729L7.51228 228.735L8.296 230.575ZM19.24 230.143L18.669 232.059L18.68 232.063L19.24 230.143ZM23.224 231.967L25.2215 232.067L25.2774 230.95L24.3551 230.317L23.224 231.967ZM22.936 237.727V239.727H24.8385L24.9335 237.827L22.936 237.727ZM22.456 237.727L20.7011 238.686L21.27 239.727H22.456V237.727ZM20.488 234.127L18.689 235L18.71 235.044L18.7331 235.086L20.488 234.127ZM18.856 231.775L17.5328 233.274L17.5583 233.297L17.5846 233.319L18.856 231.775ZM16.984 230.767L16.3958 232.678L16.4267 232.688L16.4578 232.696L16.984 230.767ZM15.832 230.527L15.4742 232.494L15.562 232.51L15.6509 232.518L15.832 230.527ZM10.36 231.871L11.636 233.411L11.6489 233.4L11.6616 233.389L10.36 231.871ZM9.976 239.599L8.46784 240.912L8.47853 240.924L8.48941 240.937L9.976 239.599ZM13.768 242.191L12.9299 244.007L12.9501 244.016L12.9705 244.025L13.768 242.191ZM15.976 243.151L16.7776 241.318L16.7735 241.317L15.976 243.151ZM22.6 247.471L21.0948 248.788L21.1017 248.796L21.1087 248.803L22.6 247.471ZM21.4 260.239L22.6804 261.775L22.6826 261.773L21.4 260.239ZM12.376 260.879C10.7871 260.879 9.15535 260.677 7.47705 260.264L6.52295 264.149C8.49265 264.633 10.4449 264.879 12.376 264.879V260.879ZM7.44472 260.257C5.75583 259.872 4.43767 259.372 3.44207 258.796L1.43793 262.258C2.87433 263.089 4.59617 263.71 6.55528 264.157L7.44472 260.257ZM4.43865 260.6L4.67865 254.072L0.68135 253.925L0.44135 260.453L4.43865 260.6ZM2.68 255.999H3.16V251.999H2.68V255.999ZM1.35479 254.86L2.84279 257.98L6.45321 256.258L4.96521 253.138L1.35479 254.86ZM2.85915 258.013C3.34922 258.993 3.88492 259.89 4.47053 260.695L7.70547 258.342C7.26708 257.74 6.84278 257.036 6.43685 256.224L2.85915 258.013ZM4.49714 260.731C5.2486 261.717 6.2483 262.442 7.41216 262.941L8.98784 259.264C8.3597 258.995 7.9514 258.664 7.67886 258.307L4.49714 260.731ZM7.30557 262.892C8.06203 263.27 8.82497 263.557 9.59014 263.727L10.4579 259.822C10.071 259.736 9.61797 259.576 9.09443 259.314L7.30557 262.892ZM9.71208 263.75C10.4409 263.865 11.2191 263.919 12.04 263.919V259.919C11.3889 259.919 10.8231 259.876 10.3359 259.799L9.71208 263.75ZM12.04 263.919C14.3596 263.919 16.4368 263.283 18.02 261.79L15.276 258.879C14.6192 259.499 13.6244 259.919 12.04 259.919V263.919ZM17.9994 261.809C19.5939 260.347 20.376 258.438 20.376 256.255H16.376C16.376 257.399 16.0061 258.21 15.2966 258.86L17.9994 261.809ZM20.376 256.255C20.376 254.373 19.9128 252.621 18.7188 251.278L15.7292 253.935C16.0712 254.32 16.376 255 16.376 256.255H20.376ZM18.7425 251.305C17.7233 250.116 16.2192 249.107 14.4089 248.219L12.6472 251.81C14.2288 252.586 15.1887 253.305 15.7055 253.908L18.7425 251.305ZM14.332 248.183L12.364 247.319L10.756 250.982L12.724 251.846L14.332 248.183ZM12.3683 247.321C9.76674 246.172 7.83749 244.904 6.49421 243.56L3.66579 246.389C5.45851 248.182 7.84926 249.698 10.7517 250.98L12.3683 247.321ZM6.52277 243.59C5.40864 242.429 4.776 240.847 4.776 238.639H0.776C0.776 241.678 1.67936 244.32 3.63723 246.36L6.52277 243.59ZM4.776 238.639C4.776 237.107 5.1592 235.886 5.85625 234.887L2.57575 232.598C1.3528 234.351 0.776 236.395 0.776 238.639H4.776ZM5.83835 234.912C6.59477 233.863 7.65012 233.024 9.07972 232.415L7.51228 228.735C5.48588 229.598 3.82123 230.87 2.59365 232.573L5.83835 234.912ZM9.06761 232.42C10.535 231.806 12.3111 231.471 14.44 231.471V227.471C11.8969 227.471 9.57705 227.871 7.52439 228.729L9.06761 232.42ZM14.44 231.471C15.9582 231.471 17.3647 231.671 18.669 232.059L19.811 228.226C18.1073 227.718 16.3138 227.471 14.44 227.471V231.471ZM18.68 232.063C20.0478 232.462 21.1757 232.987 22.0929 233.616L24.3551 230.317C23.0323 229.41 21.5042 228.72 19.8 228.223L18.68 232.063ZM21.2265 231.867L20.9385 237.627L24.9335 237.827L25.2215 232.067L21.2265 231.867ZM22.936 235.727H22.456V239.727H22.936V235.727ZM24.2109 236.767L22.2429 233.167L18.7331 235.086L20.7011 238.686L24.2109 236.767ZM22.287 233.253C21.6993 232.043 21.003 230.952 20.1274 230.231L17.5846 233.319C17.797 233.493 18.1887 233.97 18.689 235L22.287 233.253ZM20.1792 230.275C19.4045 229.591 18.5075 229.109 17.5102 228.837L16.4578 232.696C16.8685 232.808 17.2195 232.998 17.5328 233.274L20.1792 230.275ZM17.5722 228.855C17.0528 228.695 16.5306 228.582 16.0131 228.535L15.6509 232.518C15.8374 232.535 16.0832 232.582 16.3958 232.678L17.5722 228.855ZM16.1898 228.559C15.6757 228.465 15.097 228.431 14.488 228.431V232.431C14.967 232.431 15.2843 232.46 15.4742 232.494L16.1898 228.559ZM14.488 228.431C12.433 228.431 10.5802 229.048 9.05842 230.352L11.6616 233.389C12.3798 232.774 13.279 232.431 14.488 232.431V228.431ZM9.08396 230.331C7.45581 231.68 6.68 233.535 6.68 235.663H10.68C10.68 234.591 11.0242 233.918 11.636 233.411L9.08396 230.331ZM6.68 235.663C6.68 237.657 7.2156 239.474 8.46784 240.912L11.4842 238.285C11.0084 237.739 10.68 236.932 10.68 235.663H6.68ZM8.48941 240.937C9.59412 242.164 11.1151 243.169 12.9299 244.007L14.6061 240.375C13.0929 239.676 12.0859 238.953 11.4626 238.261L8.48941 240.937ZM12.9705 244.025L15.1785 244.985L16.7735 241.317L14.5655 240.357L12.9705 244.025ZM15.1744 244.983C18.1291 246.276 20.0304 247.571 21.0948 248.788L24.1052 246.154C22.4816 244.298 19.9669 242.714 16.7776 241.318L15.1744 244.983ZM21.1087 248.803C22.0649 249.873 22.616 251.32 22.616 253.327H26.616C26.616 250.534 25.8231 248.076 24.0913 246.138L21.1087 248.803ZM22.616 253.327C22.616 255.555 21.8027 257.295 20.1174 258.704L22.6826 261.773C25.2853 259.598 26.616 256.73 26.616 253.327H22.616ZM20.1196 258.702C18.4919 260.059 16.0054 260.879 12.376 260.879V264.879C16.5546 264.879 20.0841 263.939 22.6804 261.775L20.1196 258.702ZM47.7273 239.503L46.7149 241.227L46.7289 241.236L46.7431 241.244L47.7273 239.503ZM51.0873 242.959L49.3141 243.884L49.3262 243.907L49.3389 243.93L51.0873 242.959ZM52.2393 249.007L54.231 249.188L54.2317 249.18L54.2323 249.173L52.2393 249.007ZM52.0473 249.967V251.967H53.4888L53.9446 250.599L52.0473 249.967ZM37.7433 249.967V247.967H35.7246L35.7433 249.985L37.7433 249.967ZM39.5673 257.455L37.9832 258.676L37.9974 258.694L38.012 258.712L39.5673 257.455ZM48.8313 258.943L49.7485 260.72L49.7485 260.72L48.8313 258.943ZM51.6153 256.687L52.9532 255.2L51.4422 253.84L50.1071 255.373L51.6153 256.687ZM52.0953 257.119L53.8376 258.101L54.6246 256.704L53.4332 255.632L52.0953 257.119ZM48.1113 261.247L47.0871 259.529L47.0798 259.533L47.0724 259.538L48.1113 261.247ZM36.1593 261.295L35.1772 263.037L35.1893 263.044L35.2015 263.05L36.1593 261.295ZM32.0313 257.071L33.7882 256.115L33.7882 256.115L32.0313 257.071ZM32.2713 243.871L33.9622 244.939L33.9664 244.932L33.9705 244.925L32.2713 243.871ZM36.6873 239.647L35.7558 237.877L35.7493 237.88L35.7428 237.884L36.6873 239.647ZM39.8553 240.031L41.1506 241.555L41.1568 241.549L39.8553 240.031ZM38.3193 243.007L36.3868 242.491L36.3828 242.506L36.379 242.522L38.3193 243.007ZM37.7433 249.007L35.7434 248.982L35.7184 251.007H37.7433V249.007ZM45.9513 249.007V251.007H47.7762L47.9429 249.189L45.9513 249.007ZM45.5673 241.471L47.4399 240.768L47.4399 240.768L45.5673 241.471ZM42.3993 240.207C44.2009 240.207 45.6105 240.579 46.7149 241.227L48.7397 237.778C46.9 236.698 44.7576 236.207 42.3993 236.207V240.207ZM46.7431 241.244C47.8854 241.889 48.7282 242.761 49.3141 243.884L52.8604 242.034C51.9103 240.212 50.5131 238.78 48.7114 237.762L46.7431 241.244ZM49.3389 243.93C49.9538 245.037 50.2873 246.343 50.2873 247.903H54.2873C54.2873 245.751 53.8207 243.761 52.8356 241.987L49.3389 243.93ZM50.2873 247.903C50.2873 248.194 50.274 248.507 50.2462 248.841L54.2323 249.173C54.2685 248.739 54.2873 248.315 54.2873 247.903H50.2873ZM50.2475 248.826C50.2272 249.048 50.1899 249.214 50.1499 249.334L53.9446 250.599C54.0966 250.143 54.1873 249.669 54.231 249.188L50.2475 248.826ZM52.0473 247.967H37.7433V251.967H52.0473V247.967ZM35.7433 249.985C35.7766 253.575 36.3948 256.615 37.9832 258.676L41.1513 256.234C40.3717 255.222 39.7739 253.27 39.7432 249.948L35.7433 249.985ZM38.012 258.712C39.6926 260.791 42.1206 261.711 44.9433 261.711V257.711C43.0299 257.711 41.8739 257.127 41.1225 256.197L38.012 258.712ZM44.9433 261.711C46.7333 261.711 48.377 261.428 49.7485 260.72L47.914 257.165C47.3015 257.481 46.3532 257.711 44.9433 257.711V261.711ZM49.7485 260.72C51.0012 260.073 52.1226 259.149 53.1234 258L50.1071 255.373C49.3799 256.208 48.6453 256.788 47.914 257.165L49.7485 260.72ZM50.2773 258.173L50.7573 258.605L53.4332 255.632L52.9532 255.2L50.2773 258.173ZM50.3529 256.137C49.5245 257.606 48.4386 258.723 47.0871 259.529L49.1354 262.965C51.1119 261.786 52.682 260.151 53.8376 258.101L50.3529 256.137ZM47.0724 259.538C45.8126 260.303 44.2208 260.735 42.2073 260.735V264.735C44.8017 264.735 47.1459 264.174 49.1501 262.956L47.0724 259.538ZM42.2073 260.735C40.2247 260.735 38.5459 260.318 37.117 259.539L35.2015 263.05C37.2926 264.191 39.6458 264.735 42.2073 264.735V260.735ZM37.1413 259.552C35.7177 258.75 34.6061 257.619 33.7882 256.115L30.2743 258.026C31.4404 260.17 33.0808 261.855 35.1772 263.037L37.1413 259.552ZM33.7882 256.115C32.9869 254.642 32.5433 252.809 32.5433 250.543H28.5433C28.5433 253.332 29.0916 255.852 30.2743 258.026L33.7882 256.115ZM32.5433 250.543C32.5433 248.215 33.0519 246.38 33.9622 244.939L30.5803 242.803C29.1866 245.009 28.5433 247.623 28.5433 250.543H32.5433ZM33.9705 244.925C34.9517 243.345 36.1721 242.192 37.6317 241.41L35.7428 237.884C33.6184 239.022 31.8948 240.685 30.572 242.816L33.9705 244.925ZM37.6187 241.416C39.1671 240.602 40.7527 240.207 42.3993 240.207V236.207C40.0778 236.207 37.8554 236.772 35.7558 237.877L37.6187 241.416ZM42.2553 237.167C40.875 237.167 39.6068 237.609 38.5537 238.512L41.1568 241.549C41.4477 241.3 41.7795 241.167 42.2553 241.167V237.167ZM38.56 238.507C37.4507 239.45 36.8044 240.925 36.3868 242.491L40.2517 243.522C40.6021 242.208 40.9798 241.7 41.1505 241.555L38.56 238.507ZM36.379 242.522C35.9709 244.154 35.7761 246.336 35.7434 248.982L39.7431 249.031C39.7744 246.494 39.9636 244.675 40.2595 243.492L36.379 242.522ZM37.7433 251.007H45.9513V247.007H37.7433V251.007ZM47.9429 249.189C48.266 245.667 48.1868 242.76 47.4399 240.768L43.6946 242.173C44.0997 243.253 44.2765 245.37 43.9596 248.824L47.9429 249.189ZM47.4399 240.768C47.0411 239.705 46.4018 238.763 45.4494 238.101C44.4961 237.438 43.391 237.167 42.2553 237.167V241.167C42.7515 241.167 43.0144 241.28 43.1651 241.384C43.3167 241.49 43.5174 241.7 43.6946 242.173L47.4399 240.768ZM60.1559 261.151L58.864 262.677L58.8735 262.685L58.8831 262.693L60.1559 261.151ZM60.5879 252.463L61.8491 254.015L61.8587 254.007L61.8682 253.999L60.5879 252.463ZM67.8359 249.583L67.4673 247.617L67.4546 247.619L67.8359 249.583ZM69.5639 249.295L69.8606 251.273L69.9085 251.265L69.9561 251.256L69.5639 249.295ZM71.5799 248.911L71.9376 250.878L73.5799 250.58V248.911H71.5799ZM70.7639 240.559L69.0274 241.551L69.0486 241.588L69.0714 241.624L70.7639 240.559ZM66.4919 239.983L67.954 241.347L67.9759 241.324L67.997 241.3L66.4919 239.983ZM65.6279 242.527L67.5956 242.884L67.609 242.811L67.6169 242.736L65.6279 242.527ZM65.5319 243.055L63.5641 242.697L63.5402 242.828L63.534 242.962L65.5319 243.055ZM64.5239 246.079L65.9739 247.456L65.9739 247.456L64.5239 246.079ZM60.2039 246.271L61.5746 244.814L61.5746 244.814L60.2039 246.271ZM60.7319 240.895L59.3427 239.456L59.3301 239.468L59.3177 239.48L60.7319 240.895ZM64.3799 238.879L63.8089 236.962L63.8089 236.962L64.3799 238.879ZM75.8519 240.319L74.5004 241.793L74.5164 241.808L74.5327 241.822L75.8519 240.319ZM81.2759 259.855L82.6046 258.36L82.0363 257.855H81.2759V259.855ZM81.7079 260.239L83.276 261.48L84.4486 259.999L83.0366 258.744L81.7079 260.239ZM79.6919 262.015L78.7078 260.274L78.691 260.283L78.6744 260.293L79.6919 262.015ZM73.3079 261.679L72.0215 263.21L72.0544 263.238L72.0885 263.264L73.3079 261.679ZM71.7239 259.039L73.6707 258.581L72.8163 254.949L70.2648 257.671L71.7239 259.039ZM68.7479 261.679L69.9054 263.31L69.9151 263.303L68.7479 261.679ZM69.5639 259.375L70.4997 261.142L70.5175 261.133L70.5352 261.123L69.5639 259.375ZM71.5799 257.935L72.8602 259.471L73.5799 258.871V257.935H71.5799ZM71.5799 249.871H73.5799V247.431L71.1876 247.909L71.5799 249.871ZM69.5159 250.255L69.2118 248.278L69.1103 248.294L69.011 248.319L69.5159 250.255ZM65.9639 252.223L64.5251 250.833L64.5242 250.834L65.9639 252.223ZM65.5799 258.847L64.0968 260.188L64.1131 260.207L64.1299 260.224L65.5799 258.847ZM64.8599 260.735C63.4098 260.735 62.3077 260.333 61.4286 259.608L58.8831 262.693C60.5641 264.08 62.5979 264.735 64.8599 264.735V260.735ZM61.4478 259.624C60.7443 259.029 60.2839 258.124 60.2839 256.591H56.2839C56.2839 259.025 57.0714 261.161 58.864 262.677L61.4478 259.624ZM60.2839 256.591C60.2839 255.867 60.6219 255.012 61.8491 254.015L59.3267 250.91C57.4819 252.409 56.2839 254.306 56.2839 256.591H60.2839ZM61.8682 253.999C63.0252 253.035 65.0541 252.16 68.2171 251.546L67.4546 247.619C64.0257 248.285 61.2225 249.33 59.3075 250.926L61.8682 253.999ZM68.2045 251.548C68.6877 251.458 69.2391 251.366 69.8606 251.273L69.2672 247.317C68.6086 247.416 68.0081 247.516 67.4673 247.617L68.2045 251.548ZM69.9561 251.256C70.5836 251.13 71.2441 251.004 71.9376 250.878L71.2221 246.943C70.5077 247.073 69.8241 247.203 69.1716 247.333L69.9561 251.256ZM73.5799 248.911V245.119H69.5799V248.911H73.5799ZM73.5799 245.119C73.5799 242.905 73.327 240.876 72.4563 239.493L69.0714 241.624C69.2888 241.969 69.5799 242.98 69.5799 245.119H73.5799ZM72.5004 239.566C71.5967 237.985 70.0789 237.215 68.3159 237.215V241.215C68.7928 241.215 68.907 241.34 69.0274 241.551L72.5004 239.566ZM68.3159 237.215C67.054 237.215 65.8658 237.661 64.9867 238.666L67.997 241.3C68.0276 241.265 68.0447 241.256 68.06 241.25C68.0814 241.241 68.1552 241.215 68.3159 241.215V237.215ZM65.0298 238.618C64.1217 239.591 63.7784 240.992 63.6389 242.317L67.6169 242.736C67.6706 242.226 67.7511 241.865 67.8336 241.622C67.9178 241.374 67.9802 241.319 67.954 241.347L65.0298 238.618ZM63.6601 242.169L63.5641 242.697L67.4996 243.412L67.5956 242.884L63.6601 242.169ZM63.534 242.962C63.4804 244.114 63.2089 244.559 63.0739 244.701L65.9739 247.456C67.0548 246.318 67.4553 244.747 67.5297 243.148L63.534 242.962ZM63.0739 244.701C62.8498 244.937 62.625 245.039 62.2679 245.039V249.039C63.7028 249.039 64.9819 248.5 65.9739 247.456L63.0739 244.701ZM62.2679 245.039C61.8825 245.039 61.7042 244.936 61.5746 244.814L58.8331 247.727C59.7915 248.629 60.9892 249.039 62.2679 249.039V245.039ZM61.5746 244.814C61.4961 244.74 61.3879 244.614 61.3879 244.207H57.3879C57.3879 245.528 57.8237 246.777 58.8331 247.727L61.5746 244.814ZM61.3879 244.207C61.3879 243.404 61.6397 242.815 62.1461 242.309L59.3177 239.48C58.032 240.766 57.3879 242.385 57.3879 244.207H61.3879ZM62.1211 242.333C62.7738 241.703 63.6882 241.172 64.9508 240.795L63.8089 236.962C62.0635 237.482 60.5459 238.294 59.3427 239.456L62.1211 242.333ZM64.9508 240.795C66.2486 240.409 67.6861 240.207 69.2759 240.207V236.207C67.3457 236.207 65.5192 236.452 63.8089 236.962L64.9508 240.795ZM69.2759 240.207C71.809 240.207 73.4504 240.83 74.5004 241.793L77.2033 238.844C75.1814 236.991 72.4387 236.207 69.2759 236.207V240.207ZM74.5327 241.822C75.4885 242.661 76.2039 244.234 76.2039 247.087H80.2039C80.2039 243.667 79.3513 240.729 77.1711 238.815L74.5327 241.822ZM76.2039 247.087V257.695H80.2039V247.087H76.2039ZM76.2039 257.695C76.2039 258.69 76.4333 259.809 77.2458 260.679C78.0824 261.576 79.2029 261.855 80.2199 261.855V257.855C80.057 257.855 79.9995 257.832 80.0106 257.836C80.0178 257.839 80.0409 257.848 80.0729 257.869C80.1055 257.889 80.1392 257.917 80.17 257.95C80.2006 257.983 80.2207 258.013 80.2324 258.034C80.2437 258.054 80.2441 258.06 80.2396 258.046C80.2292 258.012 80.2039 257.905 80.2039 257.695H76.2039ZM80.2199 261.855H81.2759V257.855H80.2199V261.855ZM79.9471 261.349L80.3791 261.733L83.0366 258.744L82.6046 258.36L79.9471 261.349ZM80.1398 258.997C79.6671 259.594 79.1858 260.003 78.7078 260.274L80.676 263.756C81.6699 263.194 82.5326 262.419 83.276 261.48L80.1398 258.997ZM78.6744 260.293C78.4118 260.448 77.8173 260.639 76.6679 260.639V264.639C78.1425 264.639 79.564 264.413 80.7093 263.737L78.6744 260.293ZM76.6679 260.639C75.5513 260.639 74.9072 260.386 74.5273 260.093L72.0885 263.264C73.3726 264.252 74.9685 264.639 76.6679 264.639V260.639ZM74.5943 260.147C74.148 259.772 73.8353 259.28 73.6707 258.581L69.777 259.497C70.1244 260.973 70.8677 262.241 72.0215 263.21L74.5943 260.147ZM70.2648 257.671C69.3837 258.611 68.4882 259.402 67.5806 260.055L69.9151 263.303C71.0555 262.483 72.144 261.515 73.183 260.407L70.2648 257.671ZM67.5904 260.048C67.0289 260.446 66.1748 260.735 64.8599 260.735V264.735C66.745 264.735 68.4829 264.319 69.9054 263.31L67.5904 260.048ZM67.7879 261.807C68.7407 261.807 69.6557 261.589 70.4997 261.142L68.6281 257.607C68.384 257.736 68.1151 257.807 67.7879 257.807V261.807ZM70.5352 261.123C71.2612 260.72 72.0399 260.155 72.8602 259.471L70.2995 256.398C69.5838 256.995 69.0186 257.39 68.5926 257.626L70.5352 261.123ZM73.5799 257.935V249.871H69.5799V257.935H73.5799ZM71.1876 247.909C70.8676 247.973 70.5476 248.037 70.2276 248.101L71.0121 252.024C71.3321 251.96 71.6521 251.896 71.9721 251.832L71.1876 247.909ZM70.2276 248.101C69.9438 248.158 69.6062 248.217 69.2118 248.278L69.82 252.231C70.2575 252.164 70.6559 252.095 71.0121 252.024L70.2276 248.101ZM69.011 248.319C67.2479 248.779 65.7189 249.597 64.5251 250.833L67.4027 253.612C68.0008 252.992 68.8398 252.498 70.0207 252.19L69.011 248.319ZM64.5242 250.834C63.2208 252.186 62.6679 253.945 62.6679 255.871H66.6679C66.6679 254.725 66.9789 254.051 67.4036 253.611L64.5242 250.834ZM62.6679 255.871C62.6679 257.459 63.0336 259.013 64.0968 260.188L67.0629 257.505C66.9101 257.336 66.6679 256.906 66.6679 255.871H62.6679ZM64.1299 260.224C65.1062 261.252 66.3623 261.807 67.7879 261.807V257.807C67.4854 257.807 67.2696 257.721 67.0299 257.469L64.1299 260.224ZM90.1356 262.159L90.7238 260.247L90.7013 260.24L90.6785 260.234L90.1356 262.159ZM86.6796 260.815L84.6797 260.798L84.6694 262.029L85.7637 262.593L86.6796 260.815ZM86.7276 255.103V253.103H84.7444L84.7277 255.086L86.7276 255.103ZM87.2076 255.103L88.9477 254.117L88.3731 253.103H87.2076V255.103ZM88.8396 257.983L90.5921 257.019L90.5859 257.008L90.5797 256.997L88.8396 257.983ZM91.1436 260.863L89.9242 262.448L89.9579 262.474L89.9926 262.498L91.1436 260.863ZM98.1036 260.767L99.2767 262.387L99.2864 262.379L98.1036 260.767ZM98.5356 255.391L97.1214 256.805L97.1214 256.805L98.5356 255.391ZM94.7916 253.567L94.2003 255.477L94.2101 255.48L94.22 255.483L94.7916 253.567ZM92.7756 252.943L93.367 251.032L93.3544 251.028L93.3417 251.024L92.7756 252.943ZM88.1676 250.255L86.6965 251.61L86.6965 251.61L88.1676 250.255ZM88.9836 240.415L87.6585 238.917L88.9836 240.415ZM99.6396 238.639L99.1278 240.572L99.1608 240.581L99.194 240.588L99.6396 238.639ZM102.856 239.839L104.853 239.95L104.923 238.672L103.794 238.072L102.856 239.839ZM102.568 245.023V247.023H104.46L104.565 245.134L102.568 245.023ZM102.088 245.023L100.346 246.006L100.92 247.023H102.088V245.023ZM100.408 242.047L102.149 241.063L102.145 241.056L102.141 241.049L100.408 242.047ZM98.5836 239.839L97.3557 241.417L97.4039 241.455L97.4543 241.489L98.5836 239.839ZM92.6316 245.263L91.3822 246.824L91.3971 246.836L91.4122 246.848L92.6316 245.263ZM96.2796 247.039L95.6358 248.932L95.6799 248.947L95.7245 248.96L96.2796 247.039ZM98.4396 247.663L99.0241 245.75L99.0094 245.745L98.9947 245.741L98.4396 247.663ZM103.384 250.591L101.818 251.835L101.826 251.845L101.834 251.855L103.384 250.591ZM102.088 260.623L100.879 259.029L100.872 259.034L100.866 259.039L102.088 260.623ZM94.3596 260.735C92.9523 260.735 91.7475 260.562 90.7238 260.247L89.5475 264.07C91.0198 264.523 92.6309 264.735 94.3596 264.735V260.735ZM90.6785 260.234C89.5479 259.915 88.5222 259.514 87.5955 259.037L85.7637 262.593C86.9491 263.203 88.2274 263.698 89.5927 264.084L90.6785 260.234ZM88.6796 260.831L88.7276 255.119L84.7277 255.086L84.6797 260.798L88.6796 260.831ZM86.7276 257.103H87.2076V253.103H86.7276V257.103ZM85.4676 256.089L87.0996 258.969L90.5797 256.997L88.9477 254.117L85.4676 256.089ZM87.0872 258.946C87.8755 260.38 88.8057 261.588 89.9242 262.448L92.363 259.277C91.8175 258.858 91.2117 258.146 90.5921 257.019L87.0872 258.946ZM89.9926 262.498C91.2675 263.395 92.7842 263.775 94.4076 263.775V259.775C93.407 259.775 92.7478 259.546 92.2946 259.227L89.9926 262.498ZM94.4076 263.775C96.2233 263.775 97.9083 263.377 99.2766 262.387L96.9306 259.147C96.443 259.5 95.664 259.775 94.4076 259.775V263.775ZM99.2864 262.379C100.74 261.314 101.544 259.796 101.544 257.983H97.5436C97.5436 258.473 97.3874 258.812 96.9209 259.154L99.2864 262.379ZM101.544 257.983C101.544 256.461 101.04 255.067 99.9498 253.976L97.1214 256.805C97.375 257.058 97.5436 257.392 97.5436 257.983H101.544ZM99.9498 253.976C98.9066 252.933 97.2466 252.212 95.3632 251.65L94.22 255.483C95.9847 256.01 96.8207 256.504 97.1214 256.805L99.9498 253.976ZM95.383 251.656L93.367 251.032L92.1843 254.853L94.2003 255.477L95.383 251.656ZM93.3417 251.024C91.6569 250.527 90.4627 249.794 89.6387 248.9L86.6965 251.61C88.1126 253.147 89.9904 254.206 92.2096 254.861L93.3417 251.024ZM89.6387 248.9C88.8821 248.078 88.4876 247.084 88.4876 245.791H84.4876C84.4876 248.017 85.2131 249.999 86.6965 251.61L89.6387 248.9ZM88.4876 245.791C88.4876 244.285 89.0486 243.027 90.3088 241.913L87.6585 238.917C85.5906 240.746 84.4876 243.073 84.4876 245.791H88.4876ZM90.3088 241.913C91.4844 240.873 93.3264 240.207 96.1356 240.207V236.207C92.7369 236.207 89.8108 237.013 87.6585 238.917L90.3088 241.913ZM96.1356 240.207C97.2294 240.207 98.2239 240.333 99.1278 240.572L100.151 236.705C98.8794 236.369 97.5379 236.207 96.1356 236.207V240.207ZM99.194 240.588C100.141 240.805 101.047 241.143 101.917 241.605L103.794 238.072C102.616 237.447 101.378 236.985 100.085 236.689L99.194 240.588ZM100.859 239.728L100.571 244.912L104.565 245.134L104.853 239.95L100.859 239.728ZM102.568 243.023H102.088V247.023H102.568V243.023ZM103.829 244.039L102.149 241.063L98.666 243.03L100.346 246.006L103.829 244.039ZM102.141 241.049C101.469 239.882 100.68 238.849 99.713 238.188L97.4543 241.489C97.7035 241.66 98.1302 242.099 98.6744 243.045L102.141 241.049ZM99.8115 238.26C98.7252 237.415 97.3164 237.167 95.9436 237.167V241.167C96.9389 241.167 97.2901 241.366 97.3557 241.417L99.8115 238.26ZM95.9436 237.167C94.4594 237.167 93.0667 237.588 91.8015 238.389L93.9417 241.768C94.5966 241.354 95.2518 241.167 95.9436 241.167V237.167ZM91.8015 238.389C90.2728 239.357 89.4316 240.853 89.4316 242.671H93.4316C93.4316 242.248 93.5504 242.016 93.9417 241.768L91.8015 238.389ZM89.4316 242.671C89.4316 244.323 90.0749 245.779 91.3822 246.824L93.881 243.701C93.5883 243.467 93.4316 243.194 93.4316 242.671H89.4316ZM91.4122 246.848C92.491 247.678 93.9388 248.355 95.6358 248.932L96.9234 245.145C95.4205 244.634 94.4362 244.128 93.851 243.677L91.4122 246.848ZM95.7245 248.96L97.8845 249.584L98.9947 245.741L96.8347 245.117L95.7245 248.96ZM97.8552 249.575C99.9578 250.218 101.176 251.028 101.818 251.835L104.949 249.346C103.607 247.657 101.529 246.515 99.0241 245.75L97.8552 249.575ZM101.834 251.855C102.505 252.677 102.872 253.69 102.872 255.007H106.872C106.872 252.868 106.247 250.936 104.933 249.326L101.834 251.855ZM102.872 255.007C102.872 256.719 102.235 258.001 100.879 259.029L103.296 262.216C105.652 260.429 106.872 257.966 106.872 255.007H102.872ZM100.866 259.039C99.5171 260.08 97.4355 260.735 94.3596 260.735V264.735C97.9397 264.735 101.01 263.981 103.31 262.206L100.866 259.039ZM116.13 261.247L115.138 262.983L115.149 262.99L115.161 262.996L116.13 261.247ZM111.954 256.927L110.177 257.845L110.184 257.857L110.19 257.869L111.954 256.927ZM112.05 243.919L110.319 242.917L110.312 242.928L110.306 242.94L112.05 243.919ZM116.322 239.695L115.366 237.938L115.36 237.941L115.353 237.945L116.322 239.695ZM128.562 239.695L127.593 241.444L127.605 241.451L127.617 241.458L128.562 239.695ZM132.786 243.871L131.042 244.85L131.048 244.861L131.055 244.873L132.786 243.871ZM132.882 256.975L131.118 256.032L131.112 256.043L132.882 256.975ZM128.754 261.247L129.736 262.989L129.746 262.983L128.754 261.247ZM125.154 260.815L126.533 262.263L126.533 262.263L125.154 260.815ZM126.594 257.407L124.631 257.022L124.628 257.04L124.624 257.059L126.594 257.407ZM126.594 243.535L124.624 243.882L124.628 243.901L124.631 243.919L126.594 243.535ZM125.154 240.127L126.533 238.678L126.533 238.678L125.154 240.127ZM119.73 240.127L118.385 238.647L118.367 238.662L118.351 238.678L119.73 240.127ZM118.242 243.535L116.279 243.15L116.276 243.168L116.272 243.187L118.242 243.535ZM118.242 257.407L116.272 257.754L116.276 257.773L116.279 257.791L118.242 257.407ZM119.73 260.815L118.351 262.263L118.367 262.279L118.385 262.295L119.73 260.815ZM122.466 260.735C120.309 260.735 118.543 260.297 117.099 259.497L115.161 262.996C117.301 264.181 119.759 264.735 122.466 264.735V260.735ZM117.122 259.51C115.664 258.677 114.536 257.515 113.718 255.984L110.19 257.869C111.356 260.05 113.012 261.769 115.138 262.983L117.122 259.51ZM113.73 256.008C112.943 254.486 112.514 252.637 112.514 250.399H108.514C108.514 253.153 109.045 255.655 110.177 257.845L113.73 256.008ZM112.514 250.399C112.514 248.179 112.967 246.37 113.794 244.898L110.306 242.94C109.084 245.116 108.514 247.626 108.514 250.399H112.514ZM113.781 244.921C114.661 243.401 115.825 242.256 117.291 241.444L115.353 237.945C113.235 239.118 111.551 240.788 110.319 242.917L113.781 244.921ZM117.277 241.452C118.781 240.634 120.495 240.207 122.466 240.207V236.207C119.892 236.207 117.511 236.771 115.366 237.938L117.277 241.452ZM122.466 240.207C124.437 240.207 126.129 240.634 127.593 241.444L129.531 237.945C127.411 236.771 125.039 236.207 122.466 236.207V240.207ZM127.617 241.458C129.064 242.232 130.199 243.348 131.042 244.85L134.53 242.892C133.325 240.746 131.644 239.077 129.506 237.932L127.617 241.458ZM131.055 244.873C131.903 246.337 132.37 248.152 132.37 250.399H136.37C136.37 247.589 135.781 245.053 134.517 242.869L131.055 244.873ZM132.37 250.399C132.37 252.664 131.927 254.519 131.118 256.032L134.646 257.917C135.821 255.718 136.37 253.19 136.37 250.399H132.37ZM131.112 256.043C130.33 257.53 129.224 258.675 127.762 259.51L129.746 262.983C131.868 261.771 133.514 260.067 134.652 257.906L131.112 256.043ZM127.772 259.504C126.367 260.296 124.624 260.735 122.466 260.735V264.735C125.172 264.735 127.621 264.181 129.736 262.989L127.772 259.504ZM122.466 263.775C123.987 263.775 125.415 263.328 126.533 262.263L123.775 259.366C123.549 259.581 123.185 259.775 122.466 259.775V263.775ZM126.533 262.263C127.676 261.175 128.253 259.516 128.563 257.754L124.624 257.059C124.359 258.562 123.976 259.174 123.775 259.366L126.533 262.263ZM128.557 257.791C128.914 255.971 129.074 253.516 129.074 250.495H125.074C125.074 253.425 124.914 255.579 124.631 257.022L128.557 257.791ZM129.074 250.495C129.074 247.443 128.914 244.971 128.557 243.15L124.631 243.919C124.914 245.362 125.074 247.53 125.074 250.495H129.074ZM128.563 243.187C128.253 241.426 127.676 239.766 126.533 238.678L123.775 241.575C123.976 241.767 124.359 242.38 124.624 243.882L128.563 243.187ZM126.533 238.678C125.415 237.613 123.987 237.167 122.466 237.167V241.167C123.185 241.167 123.549 241.36 123.775 241.575L126.533 238.678ZM122.466 237.167C120.942 237.167 119.52 237.614 118.385 238.647L121.075 241.607C121.347 241.359 121.75 241.167 122.466 241.167V237.167ZM118.351 238.678C117.222 239.753 116.624 241.393 116.279 243.15L120.205 243.919C120.5 242.412 120.893 241.78 121.109 241.575L118.351 238.678ZM116.272 243.187C115.954 244.991 115.81 247.448 115.81 250.495H119.81C119.81 247.526 119.954 245.342 120.211 243.882L116.272 243.187ZM115.81 250.495C115.81 253.511 115.954 255.951 116.272 257.754L120.211 257.059C119.954 255.598 119.81 253.43 119.81 250.495H115.81ZM116.279 257.791C116.624 259.548 117.222 261.188 118.351 262.263L121.109 259.366C120.893 259.161 120.5 258.529 120.205 257.022L116.279 257.791ZM118.385 262.295C119.52 263.327 120.942 263.775 122.466 263.775V259.775C121.75 259.775 121.347 259.582 121.075 259.335L118.385 262.295ZM139.838 262.015H137.838V264.015H139.838V262.015ZM139.838 261.535L139.289 259.612L137.838 260.026V261.535H139.838ZM140.51 261.343L139.961 259.42L140.51 261.343ZM141.854 242.431L140.167 243.504L140.19 243.542L140.216 243.578L141.854 242.431ZM140.558 241.711L140.043 243.643L140.104 243.659L140.166 243.672L140.558 241.711ZM139.838 241.519H137.838V243.055L139.323 243.451L139.838 241.519ZM139.838 241.039L139.196 239.145L137.838 239.605V241.039H139.838ZM148.046 238.255L149.46 236.84L148.581 235.961L147.404 236.361L148.046 238.255ZM148.526 238.735L150.509 238.47L150.419 237.799L149.94 237.32L148.526 238.735ZM148.91 241.615L146.928 241.879L147.424 245.603L150.236 243.112L148.91 241.615ZM152.702 239.167L153.53 240.987L153.53 240.987L152.702 239.167ZM161.726 239.935L160.292 241.329L160.302 241.339L160.312 241.349L161.726 239.935ZM165.278 261.391L165.911 259.493L165.849 259.473L165.787 259.456L165.278 261.391ZM165.71 261.535H167.71V260.093L166.343 259.637L165.71 261.535ZM165.71 262.015V264.015H167.71V262.015H165.71ZM154.382 262.015H152.382V264.015H154.382V262.015ZM154.382 261.535L153.794 259.623L152.382 260.057V261.535H154.382ZM155.006 261.343L155.594 263.254L155.606 263.251L155.006 261.343ZM149.006 242.719L147.714 241.192L147.006 241.791V242.719H149.006ZM150.686 261.391L151.319 259.493L151.277 259.48L151.236 259.468L150.686 261.391ZM151.118 261.535H153.118V260.093L151.751 259.637L151.118 261.535ZM151.118 262.015V264.015H153.118V262.015H151.118ZM141.838 262.015V261.535H137.838V262.015H141.838ZM140.388 263.458L141.06 263.266L139.961 259.42L139.289 259.612L140.388 263.458ZM141.06 263.266C141.961 263.008 142.803 262.51 143.398 261.677C143.983 260.858 144.19 259.909 144.19 258.991H140.19C140.19 259.321 140.118 259.387 140.143 259.352C140.152 259.339 140.16 259.336 140.147 259.344C140.13 259.355 140.076 259.387 139.961 259.42L141.06 263.266ZM144.19 258.991V243.967H140.19V258.991H144.19ZM144.19 243.967C144.19 243.14 144.075 242.116 143.493 241.284L140.216 243.578C140.134 243.461 140.135 243.401 140.152 243.482C140.169 243.559 140.19 243.713 140.19 243.967H144.19ZM143.541 241.357C142.895 240.341 141.83 239.925 140.95 239.749L140.166 243.672C140.252 243.689 140.311 243.706 140.35 243.719C140.388 243.733 140.399 243.74 140.391 243.735C140.382 243.73 140.35 243.711 140.307 243.672C140.263 243.633 140.213 243.577 140.167 243.504L143.541 241.357ZM141.073 239.778L140.353 239.586L139.323 243.451L140.043 243.643L141.073 239.778ZM141.838 241.519V241.039H137.838V241.519H141.838ZM140.481 242.933L148.689 240.149L147.404 236.361L139.196 239.145L140.481 242.933ZM146.632 239.669L147.112 240.149L149.94 237.32L149.46 236.84L146.632 239.669ZM146.544 238.999L146.928 241.879L150.893 241.35L150.509 238.47L146.544 238.999ZM150.236 243.112C151.202 242.256 152.297 241.548 153.53 240.987L151.875 237.346C150.291 238.066 148.858 238.989 147.584 240.117L150.236 243.112ZM153.53 240.987C154.71 240.451 155.821 240.207 156.878 240.207V236.207C155.183 236.207 153.51 236.602 151.875 237.346L153.53 240.987ZM156.878 240.207C158.627 240.207 159.657 240.675 160.292 241.329L163.16 238.54C161.556 236.89 159.353 236.207 156.878 236.207V240.207ZM160.312 241.349C160.947 241.984 161.454 243.136 161.454 245.215H165.454C165.454 242.557 164.809 240.189 163.14 238.52L160.312 241.349ZM161.454 245.215V259.039H165.454V245.215H161.454ZM161.454 259.039C161.454 259.99 161.69 260.964 162.33 261.788C162.968 262.612 163.851 263.083 164.769 263.325L165.787 259.456C165.489 259.378 165.46 259.298 165.491 259.337C165.522 259.378 165.454 259.335 165.454 259.039H161.454ZM164.646 263.288L165.078 263.432L166.343 259.637L165.911 259.493L164.646 263.288ZM163.71 261.535V262.015H167.71V261.535H163.71ZM165.71 260.015H154.382V264.015H165.71V260.015ZM156.382 262.015V261.535H152.382V262.015H156.382ZM154.97 263.446L155.594 263.254L154.418 259.431L153.794 259.623L154.97 263.446ZM155.606 263.251C156.488 262.974 157.31 262.47 157.894 261.653C158.473 260.842 158.686 259.906 158.686 258.991H154.686C154.686 259.292 154.619 259.355 154.639 259.328C154.644 259.321 154.644 259.325 154.621 259.341C154.594 259.359 154.53 259.396 154.406 259.435L155.606 263.251ZM158.686 258.991V243.679H154.686V258.991H158.686ZM158.686 243.679C158.686 242.346 158.352 240.98 157.332 239.96C156.313 238.941 154.946 238.607 153.614 238.607V242.607C154.33 242.607 154.499 242.784 154.504 242.789C154.509 242.794 154.686 242.963 154.686 243.679H158.686ZM153.614 238.607C151.534 238.607 149.551 239.638 147.714 241.192L150.298 244.245C151.789 242.983 152.878 242.607 153.614 242.607V238.607ZM147.006 242.719V259.039H151.006V242.719H147.006ZM147.006 259.039C147.006 259.957 147.214 260.906 147.799 261.725C148.393 262.558 149.236 263.056 150.137 263.314L151.236 259.468C151.12 259.435 151.066 259.403 151.049 259.392C151.037 259.384 151.044 259.387 151.054 259.4C151.079 259.435 151.006 259.369 151.006 259.039H147.006ZM150.054 263.288L150.486 263.432L151.751 259.637L151.319 259.493L150.054 263.288ZM149.118 261.535V262.015H153.118V261.535H149.118ZM151.118 260.015H139.838V264.015H151.118V260.015ZM188.324 239.503L187.312 241.227L187.326 241.236L187.34 241.244L188.324 239.503ZM191.684 242.959L189.911 243.884L189.923 243.907L189.936 243.93L191.684 242.959ZM192.836 249.007L194.828 249.188L194.829 249.18L194.829 249.173L192.836 249.007ZM192.644 249.967V251.967H194.086L194.541 250.599L192.644 249.967ZM178.34 249.967V247.967H176.322L176.34 249.985L178.34 249.967ZM180.164 257.455L178.58 258.676L178.594 258.694L178.609 258.712L180.164 257.455ZM189.428 258.943L190.345 260.72L190.345 260.72L189.428 258.943ZM192.212 256.687L193.55 255.2L192.039 253.84L190.704 255.373L192.212 256.687ZM192.692 257.119L194.434 258.101L195.221 256.704L194.03 255.632L192.692 257.119ZM188.708 261.247L187.684 259.529L187.677 259.533L187.669 259.538L188.708 261.247ZM176.756 261.295L175.774 263.037L175.786 263.044L175.798 263.05L176.756 261.295ZM172.628 257.071L174.385 256.115L174.385 256.115L172.628 257.071ZM172.868 243.871L174.559 244.939L174.563 244.932L174.567 244.925L172.868 243.871ZM177.284 239.647L176.353 237.877L176.346 237.88L176.34 237.884L177.284 239.647ZM180.452 240.031L181.747 241.555L181.754 241.549L180.452 240.031ZM178.916 243.007L176.984 242.491L176.98 242.506L176.976 242.522L178.916 243.007ZM178.34 249.007L176.34 248.982L176.315 251.007H178.34V249.007ZM186.548 249.007V251.007H188.373L188.54 249.189L186.548 249.007ZM186.164 241.471L188.037 240.768L188.037 240.768L186.164 241.471ZM182.996 240.207C184.798 240.207 186.207 240.579 187.312 241.227L189.337 237.778C187.497 236.698 185.354 236.207 182.996 236.207V240.207ZM187.34 241.244C188.482 241.889 189.325 242.761 189.911 243.884L193.457 242.034C192.507 240.212 191.11 238.78 189.308 237.762L187.34 241.244ZM189.936 243.93C190.551 245.037 190.884 246.343 190.884 247.903H194.884C194.884 245.751 194.418 243.761 193.432 241.987L189.936 243.93ZM190.884 247.903C190.884 248.194 190.871 248.507 190.843 248.841L194.829 249.173C194.865 248.739 194.884 248.315 194.884 247.903H190.884ZM190.844 248.826C190.824 249.048 190.787 249.214 190.747 249.334L194.541 250.599C194.693 250.143 194.784 249.669 194.828 249.188L190.844 248.826ZM192.644 247.967H178.34V251.967H192.644V247.967ZM176.34 249.985C176.373 253.575 176.992 256.615 178.58 258.676L181.748 256.234C180.969 255.222 180.371 253.27 180.34 249.948L176.34 249.985ZM178.609 258.712C180.289 260.791 182.717 261.711 185.54 261.711V257.711C183.627 257.711 182.471 257.127 181.719 256.197L178.609 258.712ZM185.54 261.711C187.33 261.711 188.974 261.428 190.345 260.72L188.511 257.165C187.898 257.481 186.95 257.711 185.54 257.711V261.711ZM190.345 260.72C191.598 260.073 192.719 259.149 193.72 258L190.704 255.373C189.977 256.208 189.242 256.788 188.511 257.165L190.345 260.72ZM190.874 258.173L191.354 258.605L194.03 255.632L193.55 255.2L190.874 258.173ZM190.95 256.137C190.121 257.606 189.035 258.723 187.684 259.529L189.732 262.965C191.709 261.786 193.279 260.151 194.434 258.101L190.95 256.137ZM187.669 259.538C186.409 260.303 184.818 260.735 182.804 260.735V264.735C185.399 264.735 187.743 264.174 189.747 262.956L187.669 259.538ZM182.804 260.735C180.822 260.735 179.143 260.318 177.714 259.539L175.798 263.05C177.889 264.191 180.243 264.735 182.804 264.735V260.735ZM177.738 259.552C176.315 258.75 175.203 257.619 174.385 256.115L170.871 258.026C172.037 260.17 173.678 261.855 175.774 263.037L177.738 259.552ZM174.385 256.115C173.584 254.642 173.14 252.809 173.14 250.543H169.14C169.14 253.332 169.688 255.852 170.871 258.026L174.385 256.115ZM173.14 250.543C173.14 248.215 173.649 246.38 174.559 244.939L171.177 242.803C169.783 245.009 169.14 247.623 169.14 250.543H173.14ZM174.567 244.925C175.549 243.345 176.769 242.192 178.229 241.41L176.34 237.884C174.215 239.022 172.492 240.685 171.169 242.816L174.567 244.925ZM178.216 241.416C179.764 240.602 181.35 240.207 182.996 240.207V236.207C180.675 236.207 178.452 236.772 176.353 237.877L178.216 241.416ZM182.852 237.167C181.472 237.167 180.204 237.609 179.151 238.512L181.754 241.549C182.045 241.3 182.376 241.167 182.852 241.167V237.167ZM179.157 238.507C178.048 239.45 177.401 240.925 176.984 242.491L180.849 243.522C181.199 242.208 181.577 241.7 181.747 241.555L179.157 238.507ZM176.976 242.522C176.568 244.154 176.373 246.336 176.34 248.982L180.34 249.031C180.371 246.494 180.561 244.675 180.856 243.492L176.976 242.522ZM178.34 251.007H186.548V247.007H178.34V251.007ZM188.54 249.189C188.863 245.667 188.784 242.76 188.037 240.768L184.291 242.173C184.697 243.253 184.873 245.37 184.556 248.824L188.54 249.189ZM188.037 240.768C187.638 239.705 186.999 238.763 186.046 238.101C185.093 237.438 183.988 237.167 182.852 237.167V241.167C183.348 241.167 183.611 241.28 183.762 241.384C183.914 241.49 184.114 241.7 184.291 242.173L188.037 240.768ZM203.724 261.487L202.728 263.221L202.742 263.229L202.756 263.237L203.724 261.487ZM200.124 257.551L198.323 258.419L198.332 258.439L198.342 258.458L200.124 257.551ZM200.316 243.727L202.073 244.682L202.077 244.676L202.08 244.669L200.316 243.727ZM204.252 239.599L205.215 241.352L205.228 241.345L205.241 241.337L204.252 239.599ZM212.796 238.543L213.224 236.589L213.224 236.589L212.796 238.543ZM215.532 239.551L214.555 241.296L217.532 242.963V239.551H215.532ZM215.196 231.823L213.481 232.852L213.517 232.912L213.558 232.97L215.196 231.823ZM213.9 231.151L213.488 233.108L213.507 233.112L213.526 233.115L213.9 231.151ZM212.988 230.959H210.988V232.581L212.576 232.916L212.988 230.959ZM212.988 230.479L212.518 228.535L210.988 228.905V230.479H212.988ZM221.724 228.367L222.991 226.819L222.221 226.189L221.254 226.423L221.724 228.367ZM222.252 228.799L224.251 228.856L224.28 227.873L223.519 227.251L222.252 228.799ZM222.06 235.519L220.061 235.462L220.06 235.49V235.519H222.06ZM222.396 260.575L220.635 261.523L220.651 261.553L220.669 261.582L222.396 260.575ZM223.644 261.391L224.277 259.493L224.216 259.473L224.153 259.456L223.644 261.391ZM224.076 261.535H226.076V260.093L224.709 259.637L224.076 261.535ZM224.076 262.015L224.205 264.011L226.076 263.89V262.015H224.076ZM215.868 262.543L213.928 263.028L214.332 264.646L215.997 264.539L215.868 262.543ZM215.436 260.815L217.377 260.33L216.688 257.576L214.327 259.151L215.436 260.815ZM212.46 262.207L211.861 260.299L211.853 260.301L211.845 260.304L212.46 262.207ZM215.292 259.759L216.455 261.386L217.292 260.788V259.759H215.292ZM215.292 240.703H217.292V239.616L216.381 239.025L215.292 240.703ZM207.708 242.239L209.409 243.29L209.414 243.283L209.418 243.277L207.708 242.239ZM207.612 258.655L205.938 259.748L205.943 259.756L205.948 259.764L207.612 258.655ZM208.812 260.735C207.229 260.735 205.872 260.389 204.692 259.737L202.756 263.237C204.585 264.248 206.62 264.735 208.812 264.735V260.735ZM204.721 259.752C203.598 259.108 202.652 258.107 201.907 256.643L198.342 258.458C199.389 260.515 200.842 262.138 202.728 263.221L204.721 259.752ZM201.926 256.682C201.234 255.247 200.828 253.282 200.828 250.687H196.828C196.828 253.659 197.287 256.27 198.323 258.419L201.926 256.682ZM200.828 250.687C200.828 248.091 201.287 246.127 202.073 244.682L198.559 242.771C197.361 244.974 196.828 247.651 196.828 250.687H200.828ZM202.08 244.669C202.914 243.11 203.966 242.038 205.215 241.352L203.29 237.845C201.275 238.952 199.703 240.632 198.552 242.784L202.08 244.669ZM205.241 241.337C206.564 240.585 207.999 240.207 209.58 240.207V236.207C207.322 236.207 205.204 236.757 203.264 237.86L205.241 241.337ZM209.58 240.207C210.566 240.207 211.494 240.305 212.369 240.496L213.224 236.589C212.05 236.332 210.834 236.207 209.58 236.207V240.207ZM212.369 240.496C213.227 240.684 213.95 240.957 214.555 241.296L216.509 237.806C215.515 237.249 214.413 236.849 213.224 236.589L212.369 240.496ZM217.532 239.551V233.311H213.532V239.551H217.532ZM217.532 233.311C217.532 232.492 217.41 231.497 216.835 230.676L213.558 232.97C213.483 232.863 213.482 232.808 213.497 232.875C213.512 232.941 213.532 233.079 213.532 233.311H217.532ZM216.911 230.794C216.258 229.706 215.077 229.339 214.274 229.186L213.526 233.115C213.629 233.135 213.702 233.154 213.752 233.17C213.802 233.186 213.817 233.195 213.808 233.19C213.793 233.182 213.626 233.092 213.481 232.852L216.911 230.794ZM214.312 229.194L213.4 229.002L212.576 232.916L213.488 233.108L214.312 229.194ZM214.988 230.959V230.479H210.988V230.959H214.988ZM213.458 232.423L222.194 230.311L221.254 226.423L212.518 228.535L213.458 232.423ZM220.458 229.915L220.986 230.347L223.519 227.251L222.991 226.819L220.458 229.915ZM220.253 228.742L220.061 235.462L224.059 235.576L224.251 228.856L220.253 228.742ZM220.06 235.519V258.991H224.06V235.519H220.06ZM220.06 258.991C220.06 259.849 220.209 260.73 220.635 261.523L224.157 259.626C224.136 259.587 224.06 259.412 224.06 258.991H220.06ZM220.669 261.582C221.254 262.586 222.229 263.086 223.135 263.325L224.153 259.456C224.081 259.438 224.032 259.42 224.002 259.407C223.971 259.394 223.963 259.388 223.971 259.393C223.979 259.398 224.002 259.414 224.032 259.445C224.062 259.476 224.095 259.517 224.124 259.567L220.669 261.582ZM223.012 263.288L223.444 263.432L224.709 259.637L224.277 259.493L223.012 263.288ZM222.076 261.535V262.015H226.076V261.535H222.076ZM223.948 260.019L215.74 260.547L215.997 264.539L224.205 264.011L223.948 260.019ZM217.809 262.058L217.377 260.33L213.496 261.3L213.928 263.028L217.809 262.058ZM214.327 259.151C213.639 259.609 212.823 259.996 211.861 260.299L213.06 264.115C214.337 263.713 215.505 263.172 216.546 262.479L214.327 259.151ZM211.845 260.304C210.987 260.581 209.983 260.735 208.812 260.735V264.735C210.33 264.735 211.758 264.536 213.076 264.11L211.845 260.304ZM211.596 262.959C213.368 262.959 215.004 262.422 216.455 261.386L214.13 258.131C213.34 258.695 212.513 258.959 211.596 258.959V262.959ZM217.292 259.759V240.703H213.292V259.759H217.292ZM216.381 239.025C214.916 238.075 213.328 237.551 211.644 237.551V241.551C212.457 241.551 213.3 241.794 214.204 242.381L216.381 239.025ZM211.644 237.551C209.165 237.551 207.301 239.055 205.999 241.201L209.418 243.277C210.291 241.838 211.051 241.551 211.644 241.551V237.551ZM206.007 241.187C204.62 243.431 204.076 246.678 204.076 250.591H208.076C208.076 246.888 208.621 244.566 209.409 243.29L206.007 241.187ZM204.076 250.591C204.076 254.459 204.574 257.66 205.938 259.748L209.287 257.561C208.603 256.513 208.076 254.339 208.076 250.591H204.076ZM205.948 259.764C207.286 261.771 209.199 262.959 211.596 262.959V258.959C210.729 258.959 209.986 258.61 209.276 257.545L205.948 259.764Z" fill="#211B17" mask="url(#path-78-outside-1_1738_18612)"/>
</svg>
